<svg xmlns="http://www.w3.org/2000/svg" xmlns:xlink="http://www.w3.org/1999/xlink" viewBox="0 0 400 820">
    <style><![CDATA[.BY{fill:#fab81d}.BZ{fill:#fff}.Ba{fill:#ffedad}.Bb{opacity:.48}]]></style>
    <defs>
        <linearGradient id="A" x1="235.111" y1="109.013" x2="262.015" y2="130.063" xlink:href="#Bg">
            <stop offset="0" stop-color="#3167b0"/>
            <stop offset=".5" stop-color="#2d5da9"/>
            <stop offset="1" stop-color="#2256a4"/>
        </linearGradient>
        <linearGradient id="B" x1="-809.26" y1="-96.32" x2="-732.41" y2="-96.32"
                        gradientTransform="translate(-560.34 189.95) rotate(-178.37) scale(1 -1)" xlink:href="#Bg">
            <stop offset="0" stop-color="#1f4a9a"/>
            <stop offset="1" stop-color="#25509f"/>
        </linearGradient>
        <linearGradient id="C" x1="-371.404" y1="429.754" x2="810.188" y2="-256.2" xlink:href="#Bg">
            <stop offset="0" stop-color="#d1e7d6"/>
        </linearGradient>
        <linearGradient id="D" x1="212.74" y1="156.42" x2="288.92" y2="156.42" xlink:href="#Bg">
            <stop offset="0" stop-color="#fff"/>
        </linearGradient>
        <linearGradient id="E" x1="11.67" y1="318.36" x2="171.53" y2="318.36"
                        gradientTransform="translate(20.29 188.08) rotate(-112.02) scale(1.46 .62) skewX(-28.28)"
                        xlink:href="#Bg">
            <stop offset="0" stop-color="#567ebf"/>
            <stop offset="1" stop-color="#668cc8"/>
        </linearGradient>
        <linearGradient id="F" x1="90.1" y1="412.71" x2="90.1" y2="212.39"
                        gradientTransform="translate(20.29 188.08) rotate(-112.02) scale(1.46 .62) skewX(-28.28)"
                        xlink:href="#Bg">
            <stop offset="0" stop-color="#ccddf2"/>
            <stop offset="1" stop-color="#d5e5f7"/>
        </linearGradient>
        <linearGradient id="G" x1="10.04" y1="176.72" x2="168.27" y2="176.72"
                        gradientTransform="translate(79.05 222.18) rotate(-92.64) scale(1.07 .84) skewX(-26.74)"
                        xlink:href="#Bg">
            <stop offset="0" stop-color="#1b4899"/>
            <stop offset="1" stop-color="#254f9e"/>
        </linearGradient>
        <linearGradient id="H" x1="127.6" y1="195.17" x2="127.6" y2="215.86"
                        gradientTransform="translate(79.05 222.18) rotate(-92.64) scale(1.07 .84) skewX(-26.74)"
                        xlink:href="#Bg">
            <stop offset="0" stop-color="#7dc2a0"/>
        </linearGradient>
        <linearGradient id="I" x1="88.73" y1="180.02" x2="245.61" y2="180.02"
                        gradientTransform="matrix(1, 0, 0, 1, 0, 0)" xlink:href="#E"/>
        <linearGradient id="J" x1="83.4" y1="182.04" x2="240.27" y2="182.04"
                        gradientTransform="matrix(1, 0, 0, 1, 0, 0)" xlink:href="#G"/>
        <linearGradient id="K" x1="105.44" y1="172.1" x2="221.47" y2="172.1" xlink:href="#Bg">
            <stop offset="0" stop-color="#fdfeff"/>
        </linearGradient>
        <linearGradient id="L" x1="143.53" y1="57.32" x2="170.8" y2="57.32" gradientTransform="matrix(1, 0, 0, 1, 0, 0)"
                        xlink:href="#E"/>
        <linearGradient id="M" x1="172.48" y1="68.16" x2="176.66" y2="68.16"
                        gradientTransform="matrix(1, 0, 0, 1, 0, 0)" xlink:href="#E"/>
        <linearGradient id="N" x1="178.74" y1="72" x2="182.92" y2="72" gradientTransform="matrix(1, 0, 0, 1, 0, 0)"
                        xlink:href="#E"/>
        <linearGradient id="O" x1="188.926" y1="168.367" x2="214.593" y2="170.175" xlink:href="#A"/>
        <linearGradient id="P" x1="188.047" y1="168.756" x2="213.713" y2="170.565" xlink:href="#Bg">
            <stop offset="0" stop-color="#3970b7"/>
            <stop offset=".5" stop-color="#3967af"/>
            <stop offset="1" stop-color="#2f5faa"/>
        </linearGradient>
        <linearGradient id="Q" x1="263.83" y1="65.64" x2="367.29" y2="65.64"
                        gradientTransform="translate(-189.25 -35.1) rotate(19.43) scale(1.07 .95) skewX(39.47)"
                        xlink:href="#A"/>
        <linearGradient id="R" x1="249.06" y1="67.01" x2="376.16" y2="67.01"
                        gradientTransform="translate(-189.25 -35.1) rotate(19.43) scale(1.07 .95) skewX(39.47)"
                        xlink:href="#E"/>
        <linearGradient id="S" x1="129.627" y1="165.272" x2="194.447" y2="169.839" xlink:href="#Bg">
            <stop offset="0" stop-color="#457dbf"/>
            <stop offset=".5" stop-color="#3969b1"/>
            <stop offset="1" stop-color="#2a63ad"/>
        </linearGradient>
        <linearGradient id="T" x1="173.54" y1="173.318" x2="194.099" y2="174.767" xlink:href="#Bg">
            <stop offset="0" stop-color="#25589b"/>
            <stop offset=".5" stop-color="#1d488c"/>
            <stop offset="1" stop-color="#255faa"/>
        </linearGradient>
        <linearGradient id="U" x1="132.786" y1="153.735" x2="163.969" y2="155.932" xlink:href="#T"/>
        <linearGradient id="V" x1="201.356" y1="178.065" x2="213.994" y2="178.955" xlink:href="#Bg">
            <stop offset="0" stop-color="#a6c6ea"/>
            <stop offset=".5" stop-color="#9cb7e1"/>
            <stop offset="1" stop-color="#99c3e9"/>
        </linearGradient>
        <linearGradient id="W" x1="202.428" y1="178.351" x2="213.96" y2="179.163" xlink:href="#A"/>
        <linearGradient id="X" x1="-178.7" y1="699.89" x2="-178.7" y2="778.54"
                        gradientTransform="translate(-395.39 646.03) rotate(62.28) scale(1 -1)" xlink:href="#Bg">
            <stop offset="0" stop-color="#649b80"/>
        </linearGradient>
        <linearGradient id="Y" x1="-202.32" y1="699.1" x2="-202.32" y2="778.82"
                        gradientTransform="translate(-395.39 646.03) rotate(62.28) scale(1 -1)" xlink:href="#Bg">
            <stop offset="0" stop-color="#71af8e"/>
        </linearGradient>
        <linearGradient id="Z" x1="-75.53" y1="1778.93" x2="-75.53" y2="1833.16"
                        gradientTransform="translate(-1559.87 -2090.53) rotate(-87.72) skewX(-49.11)" xlink:href="#H"/>
        <linearGradient id="a" x1="-46.69" y1="1808.93" x2="-46.69" y2="1814.53"
                        gradientTransform="translate(-1559.87 -2090.53) rotate(-87.72) skewX(-49.11)" xlink:href="#Bg">
            <stop offset="0" stop-color="#fff"/>
        </linearGradient>
        <linearGradient id="b" x1="-194.39" y1="690.43" x2="-194.39" y2="767.62"
                        gradientTransform="translate(-395.39 646.03) rotate(62.28) scale(1 -1)" xlink:href="#a"/>
        <linearGradient id="c" x1="-861.35" y1="1788.92" x2="-861.35" y2="1818.2"
                        gradientTransform="translate(-1569.21 -1834.83) rotate(-87.72) skewX(-30)" xlink:href="#a"/>
        <linearGradient id="d" x1="-104.31" y1="1792.1" x2="-104.31" y2="1797.7" xlink:href="#a"/>
        <linearGradient id="e" x1="-180.94" y1="720.4" x2="-180.94" y2="754.14" xlink:href="#Y"/>
        <linearGradient id="f" x1="-180.66" y1="723.22" x2="-180.66" y2="756.96" xlink:href="#Y"/>
        <linearGradient id="g" x1="-221.89" y1="739.47" x2="-221.89" y2="755.13" xlink:href="#X"/>
        <linearGradient id="h" x1="-154.68" y1="700.63" x2="-154.68" y2="779.28" xlink:href="#X"/>
        <linearGradient id="i" x1="-178.3" y1="699.83" x2="-178.3" y2="779.55" xlink:href="#Y"/>
        <linearGradient id="j" x1="-81.36" y1="1791.58" x2="-81.36" y2="1845.81"
                        gradientTransform="translate(-1559.87 -2090.53) rotate(-87.72) skewX(-49.11)" xlink:href="#H"/>
        <linearGradient id="k" x1="-64.35" y1="1800.64" x2="-64.35" y2="1806.25" xlink:href="#a"/>
        <linearGradient id="l" x1="-170.37" y1="691.16" x2="-170.37" y2="768.35"
                        gradientTransform="translate(-395.39 646.03) rotate(62.28) scale(1 -1)" xlink:href="#a"/>
        <linearGradient id="m" x1="-874.49" y1="1801.56" x2="-874.49" y2="1830.84"
                        gradientTransform="translate(-1569.21 -1834.83) rotate(-87.72) skewX(-30)" xlink:href="#a"/>
        <linearGradient id="n" x1="-103.63" y1="1746.34" x2="-103.63" y2="1751.95" xlink:href="#a"/>
        <linearGradient id="o" x1="-168.74" y1="700.2" x2="-168.74" y2="733.94" xlink:href="#Y"/>
        <linearGradient id="p" x1="-171.1" y1="704.09" x2="-171.1" y2="737.82" xlink:href="#Y"/>
        <linearGradient id="q" x1="-197.88" y1="740.2" x2="-197.88" y2="755.87" xlink:href="#X"/>
        <linearGradient id="r" x1="330.39" y1="38.14" x2="433.86" y2="38.14"
                        gradientTransform="translate(-176.39 -103.41) rotate(34.03) skewX(49.11)" xlink:href="#V"/>
        <linearGradient id="s" x1="327.68" y1="39.65" x2="431.15" y2="39.65"
                        gradientTransform="translate(-176.39 -103.41) rotate(34.03) skewX(49.11)" xlink:href="#A"/>
        <linearGradient id="t" x1="204.695" y1="180.746" x2="210.321" y2="181.142" xlink:href="#Bg">
            <stop offset="0" stop-color="#f9fcfe"/>
            <stop offset=".5" stop-color="#edf2fb"/>
            <stop offset="1" stop-color="#ebf5fd"/>
        </linearGradient>
        <linearGradient id="u" x1="-637.08" y1="140.34" x2="-611.93" y2="140.34"
                        gradientTransform="translate(-426.2 -263.06) rotate(-146.3) scale(1 -1) skewX(-49.11)"
                        xlink:href="#Bg">
            <stop offset="0" stop-color="#eff0f2"/>
            <stop offset=".5" stop-color="#f8f9fb"/>
        </linearGradient>
        <linearGradient id="v" x1="217.895" y1="500.668" x2="250.621" y2="510.461" xlink:href="#A"/>
        <linearGradient id="w" x1="-126.23" y1="-388.62" x2="-84.26" y2="-388.62"
                        gradientTransform="translate(85.31 878.37) rotate(40.51)" xlink:href="#B"/>
        <linearGradient id="x" x1="-888.57" y1="296.55" x2="-811.72" y2="296.55"
                        gradientTransform="translate(-539.49 123.52) rotate(-170.58) scale(1 -1)" xlink:href="#B"/>
        <linearGradient id="y" x1="-269.637" y1="812.697" x2="395.901" y2="392.182" xlink:href="#C"/>
        <linearGradient id="z" x1="61.191" y1="724.89" x2="55.682" y2="686.281" xlink:href="#A"/>
        <linearGradient id="AA" x1="300.36" y1="244.58" x2="377.21" y2="244.58"
                        gradientTransform="translate(-308.63 493.94) rotate(64.55) scale(1 -1)" xlink:href="#Bg">
            <stop offset="0" stop-color="#779cd2"/>
            <stop offset="1" stop-color="#8aacdb"/>
        </linearGradient>
        <linearGradient id="AB" x1="287.02" y1="-224.53" x2="287.02" y2="-86.59"
                        gradientTransform="translate(418.03 672.02) rotate(-158.11)" xlink:href="#H"/>
        <linearGradient id="AC" x1="-1118.72" y1="646.58" x2="-897.75" y2="646.58"
                        gradientTransform="translate(-710.46) rotate(-180) scale(1 -1)" xlink:href="#E"/>
        <linearGradient id="AD" x1="1836.94" y1="-1896.85" x2="2005.03" y2="-1896.85"
                        gradientTransform="translate(-885.48 2149.96) rotate(-150) scale(1 -1) skewX(49.11)"
                        xlink:href="#Bg">
            <stop offset="0" stop-color="#e8f2fb"/>
            <stop offset=".5" stop-color="#c9e1f6"/>
        </linearGradient>
        <linearGradient id="AE" x1="245.82" y1="624.02" x2="245.82" y2="638.49"
                        gradientTransform="matrix(1, 0, 0, 1, 0, 0)" xlink:href="#X"/>
        <linearGradient id="AF" x1="333.79" y1="635.27" x2="333.79" y2="644.67"
                        gradientTransform="matrix(1, 0, 0, 1, 0, 0)" xlink:href="#H"/>
        <linearGradient id="AG" x1="335.21" y1="636.86" x2="335.21" y2="644.46"
                        gradientTransform="matrix(1, 0, 0, 1, 0, 0)" xlink:href="#H"/>
        <linearGradient id="AH" x1="336.67" y1="638.59" x2="336.67" y2="644.03"
                        gradientTransform="matrix(1, 0, 0, 1, 0, 0)" xlink:href="#H"/>
        <linearGradient id="AI" x1="337.83" y1="640.41" x2="337.83" y2="643.85"
                        gradientTransform="matrix(1, 0, 0, 1, 0, 0)" xlink:href="#H"/>
        <linearGradient id="AJ" x1="73.96" y1="744.61" x2="212.89" y2="744.61" xlink:href="#Bg">
            <stop offset="0" stop-color="#345faa"/>
            <stop offset=".54" stop-color="#4871b6"/>
            <stop offset="1" stop-color="#5e84c3"/>
        </linearGradient>
        <linearGradient id="AK" x1="-923.89" y1="724.84" x2="-797.07" y2="724.84"
                        gradientTransform="translate(-715.07) rotate(-180) scale(1 -1)" xlink:href="#E"/>
        <linearGradient id="AL" x1="62.39" y1="596.69" x2="249.67" y2="596.69"
                        gradientTransform="matrix(1, 0, 0, 1, 0, 0)" xlink:href="#G"/>
        <linearGradient id="AM" x1="74.69" y1="695.87" x2="96.47" y2="695.87"
                        gradientTransform="matrix(1, 0, 0, 1, 0, 0)" xlink:href="#G"/>
        <linearGradient id="AN" x1="180.91" y1="493.68" x2="202.91" y2="493.68"
                        gradientTransform="matrix(1, 0, 0, 1, 0, 0)" xlink:href="#G"/>
        <linearGradient id="AO" x1="137.36" y1="706.06" x2="151.49" y2="706.06"
                        gradientTransform="matrix(1, 0, 0, 1, 0, 0)" xlink:href="#G"/>
        <linearGradient id="AP" x1="-930.01" y1="520.32" x2="-773.18" y2="520.32"
                        gradientTransform="translate(-715.07) rotate(-180) scale(1 -1)" xlink:href="#A"/>
        <linearGradient id="AQ" x1="-956.6" y1="608.95" x2="-748.17" y2="608.95"
                        gradientTransform="translate(-715.07) rotate(-180) scale(1 -1)" xlink:href="#AD"/>
        <linearGradient id="AR" x1="-941.88" y1="597.63" x2="-816.33" y2="597.63"
                        gradientTransform="translate(-715.07) rotate(-180) scale(1 -1)" xlink:href="#A"/>
        <linearGradient id="AS" x1="-806.75" y1="615.53" x2="-798.95" y2="615.53"
                        gradientTransform="translate(-715.07) rotate(-180) scale(1 -1)" xlink:href="#A"/>
        <linearGradient id="AT" x1="-948.98" y1="656.95" x2="-919.87" y2="656.95"
                        gradientTransform="translate(-715.07) rotate(-180) scale(1 -1)" xlink:href="#E"/>
        <linearGradient id="AU" x1="169.58" y1="647.59" x2="317.97" y2="647.59"
                        gradientTransform="matrix(1, 0, 0, 1, 0, 0)" xlink:href="#G"/>
        <linearGradient id="AV" x1="174.63" y1="649.51" x2="323.02" y2="649.51"
                        gradientTransform="matrix(1, 0, 0, 1, 0, 0)" xlink:href="#E"/>
        <linearGradient id="AW" x1="194.49" y1="642.14" x2="304.67" y2="642.14"
                        gradientTransform="matrix(1, 0, 0, 1, 0, 0)" xlink:href="#u"/>
        <linearGradient id="AX" x1="242.06" y1="531.53" x2="267.85" y2="531.53"
                        gradientTransform="matrix(1, 0, 0, 1, 0, 0)" xlink:href="#G"/>
        <linearGradient id="AY" x1="236.82" y1="541.79" x2="240.78" y2="541.79"
                        gradientTransform="matrix(1, 0, 0, 1, 0, 0)" xlink:href="#G"/>
        <linearGradient id="AZ" x1="230.91" y1="545.43" x2="234.86" y2="545.43"
                        gradientTransform="matrix(1, 0, 0, 1, 0, 0)" xlink:href="#G"/>
        <linearGradient id="Aa" x1="-738.65" y1="654.63" x2="-713.8" y2="654.63"
                        gradientTransform="translate(-530.72 .56) rotate(178.24) scale(1 -1)" xlink:href="#A"/>
        <linearGradient id="Ab" x1="-739.47" y1="655.07" x2="-714.62" y2="655.07"
                        gradientTransform="translate(-530.72 .56) rotate(178.24) scale(1 -1)" xlink:href="#P"/>
        <linearGradient id="Ac" x1="-1070.01" y1="833.31" x2="-970.09" y2="833.31"
                        gradientTransform="translate(-320.87 -29) rotate(162.84) scale(1.07 -.95) skewX(39.47)"
                        xlink:href="#A"/>
        <linearGradient id="Ad" x1="-1084.27" y1="834.63" x2="-961.52" y2="834.63"
                        gradientTransform="translate(-320.87 -29) rotate(162.84) scale(1.07 -.95) skewX(39.47)"
                        xlink:href="#AA"/>
        <linearGradient id="Ae" x1="-795.99" y1="655.68" x2="-733.23" y2="655.68"
                        gradientTransform="translate(-530.72 .56) rotate(178.24) scale(1 -1)" xlink:href="#S"/>
        <linearGradient id="Af" x1="-753.14" y1="660.45" x2="-733.23" y2="660.45"
                        gradientTransform="translate(-530.72 .56) rotate(178.24) scale(1 -1)" xlink:href="#T"/>
        <linearGradient id="Ag" x1="-793.73" y1="644.35" x2="-763.54" y2="644.35"
                        gradientTransform="translate(-530.72 .56) rotate(178.24) scale(1 -1)" xlink:href="#T"/>
        <linearGradient id="Ah" x1="-726.01" y1="663.14" x2="-713.78" y2="663.14"
                        gradientTransform="translate(-530.72 .56) rotate(178.24) scale(1 -1)" xlink:href="#A"/>
        <linearGradient id="Ai" x1="-726.34" y1="663.34" x2="-712.62" y2="663.34"
                        gradientTransform="translate(-530.72 .56) rotate(178.24) scale(1 -1)" xlink:href="#E"/>
        <linearGradient id="Aj" x1="-245.51" y1="-359.54" x2="-245.51" y2="-283.56"
                        gradientTransform="translate(-158.02 658.43) rotate(119.99)" xlink:href="#X"/>
        <linearGradient id="Ak" x1="-268.32" y1="-360.31" x2="-268.32" y2="-283.3"
                        gradientTransform="translate(-158.02 658.43) rotate(119.99)" xlink:href="#Y"/>
        <linearGradient id="Al" x1="-1647.9" y1="826.96" x2="-1647.9" y2="879.33"
                        gradientTransform="translate(1112.63 -2029.29) rotate(-90.01) scale(1 -1) skewX(-49.11)"
                        xlink:href="#H"/>
        <linearGradient id="Am" x1="-1620.05" y1="855.93" x2="-1620.05" y2="861.34"
                        gradientTransform="translate(1112.63 -2029.29) rotate(-90.01) scale(1 -1) skewX(-49.11)"
                        xlink:href="#a"/>
        <linearGradient id="An" x1="-260.67" y1="-368.68" x2="-260.67" y2="-294.12"
                        gradientTransform="translate(-158.02 658.43) rotate(119.99)" xlink:href="#a"/>
        <linearGradient id="Ao" x1="-1883.19" y1="837.86" x2="-1883.19" y2="866.14"
                        gradientTransform="translate(1112.9 -1773.72) rotate(-90.01) scale(1 -1) skewX(-30)"
                        xlink:href="#a"/>
        <linearGradient id="Ap" x1="-1675.69" y1="839.67" x2="-1675.69" y2="845.08"
                        gradientTransform="translate(1112.63 -2029.29) rotate(-90.01) scale(1 -1) skewX(-49.11)"
                        xlink:href="#a"/>
        <linearGradient id="Aq" x1="-247.68" y1="-339.73" x2="-247.68" y2="-307.14"
                        gradientTransform="translate(-158.02 658.43) rotate(119.99)" xlink:href="#Y"/>
        <linearGradient id="Ar" x1="-247.4" y1="-337" x2="-247.4" y2="-304.41"
                        gradientTransform="translate(-158.02 658.43) rotate(119.99)" xlink:href="#Y"/>
        <linearGradient id="As" x1="-287.23" y1="-321.3" x2="-287.23" y2="-306.18"
                        gradientTransform="translate(-158.02 658.43) rotate(119.99)" xlink:href="#X"/>
        <linearGradient id="At" x1="-1245.13" y1="932.04" x2="-1145.21" y2="932.04"
                        gradientTransform="translate(-331.76 -97.92) rotate(148.24) scale(1 -1) skewX(49.1)"
                        xlink:href="#A"/>
        <linearGradient id="Au" x1="-1260.03" y1="933.49" x2="-1137.28" y2="933.49"
                        gradientTransform="translate(-331.76 -97.92) rotate(148.24) scale(1 -1) skewX(49.1)"
                        xlink:href="#E"/>
        <linearGradient id="Av" x1="-722.62" y1="665.49" x2="-717.17" y2="665.49"
                        gradientTransform="translate(-530.72 .56) rotate(178.24) scale(1 -1)" xlink:href="#t"/>
        <linearGradient id="Aw" x1="260.43" y1="667.13" x2="260.43" y2="729.32"
                        gradientTransform="matrix(1, 0, 0, 1, 0, 0)" xlink:href="#H"/>
        <linearGradient id="Ax" x1="336.53" y1="903.72" x2="336.53" y2="911.8"
                        gradientTransform="translate(-31 -162.97) rotate(-30) skewX(-30)" xlink:href="#H"/>
        <linearGradient id="Ay" x1="336.53" y1="911.76" x2="336.53" y2="919.83"
                        gradientTransform="translate(-31 -162.97) rotate(-30) skewX(-30)" xlink:href="#H"/>
        <linearGradient id="Az" x1="108.58" y1="498.08" x2="138.63" y2="498.08"
                        gradientTransform="matrix(1, 0, 0, 1, 0, 0)" xlink:href="#AA"/>
        <linearGradient id="BA" x1="126.89" y1="524.77" x2="126.89" y2="474.16"
                        gradientTransform="matrix(1, 0, 0, 1, 0, 0)" xlink:href="#F"/>
        <linearGradient id="BB" x1="675.61" y1="943.15" x2="700.75" y2="943.15"
                        gradientTransform="translate(94.46 -256.81) rotate(-32.36) skewX(-49.11)" xlink:href="#u"/>
        <linearGradient id="BC" x1="322.9" y1="593.25" x2="322.9" y2="667.79"
                        gradientTransform="translate(-3.97 -8.29) rotate(-1.95)" xlink:href="#X"/>
        <linearGradient id="BD" x1="301.289" y1="597.823" x2="371.245" y2="583.606" xlink:href="#C"/>
        <linearGradient id="BE" x1="661.95" y1="383.38" x2="776.35" y2="405.4"
                        gradientTransform="translate(181.96 -103.74) rotate(10.82) scale(.74 1.63) skewX(-38.98)"
                        xlink:href="#C"/>
        <linearGradient id="BF" x1="658.42" y1="390.84" x2="798.57" y2="417.81"
                        gradientTransform="translate(181.96 -103.74) rotate(10.82) scale(.74 1.63) skewX(-38.98)"
                        xlink:href="#C"/>
        <linearGradient id="BG" x1="305.688" y1="619.457" x2="375.635" y2="605.245" xlink:href="#C"/>
        <linearGradient id="BH" x1="-260.09" y1="669.095" x2="1137.762" y2="522.507" xlink:href="#C"/>
        <linearGradient id="BI" x1="301.541" y1="599.038" x2="371.488" y2="584.826" xlink:href="#C"/>
        <linearGradient id="BJ" x1="363.09" y1="585.75" x2="363.09" y2="599.96"
                        gradientTransform="translate(-4.11 -3.4) rotate(-.29)" xlink:href="#a"/>
        <linearGradient id="BK" x1="-1000.04" y1="1143.93" x2="-921.19" y2="1159.11"
                        gradientTransform="translate(-10.25 -521.02) rotate(-31.95) skewX(30)" xlink:href="#C"/>
        <linearGradient id="BL" x1="-999.71" y1="1142.2" x2="-920.86" y2="1157.37"
                        gradientTransform="translate(-10.25 -521.02) rotate(-31.95) skewX(30)" xlink:href="#C"/>
        <linearGradient id="BM" x1="291.37" y1="872.91" x2="291.37" y2="888.85"
                        gradientTransform="translate(-142.88 -150.54) rotate(-46.88) skewX(-30)" xlink:href="#a"/>
        <linearGradient id="BN" x1="-999.69" y1="1142.07" x2="-920.84" y2="1157.25"
                        gradientTransform="translate(-10.25 -521.02) rotate(-31.95) skewX(30)" xlink:href="#C"/>
        <linearGradient id="BO" x1="-353.653" y1="684.862" x2="1108.207" y2="531.559" xlink:href="#C"/>
        <linearGradient id="BP" x1="381.97" y1="596.06" x2="381.97" y2="611.57"
                        gradientTransform="translate(-4.11 -3.4) rotate(-.29)" xlink:href="#a"/>
        <path id="BQ"
              d="M166.63 116.96l-.18 4.58c-.02.57-.49.75-1.05.4l-1.24-.78c-.56-.35-.99-1.1-.97-1.68l.18-4.58c.02-.57.49-.75 1.05-.4l1.24.78c.56.35.99 1.1.97 1.68z"/>
        <path id="BR"
              d="M174.84 109.87c-.07-.13-.2-.22-.36-.23-.23 0-.43.17-.44.4l-2.62 65.74c-.01.23.17.43.4.44.23 0 .43-.17.44-.4l2.62-65.74c0-.08-.01-.15-.05-.21z"/>
        <path id="BS"
              d="M271.21 320.21v-2.02l-.87-.57c-.89-1.63-2.44-3.17-4.68-4.46-7.41-4.28-19.42-4.28-26.83 0-2.52 1.45-4.18 3.22-4.99 5.08l-.57-.08v3.19l.07.5c.37 2.48 2.2 4.9 5.48 6.8 7.41 4.28 19.42 4.28 26.83 0 3.29-1.9 5.11-4.32 5.48-6.79l.07-.76v-.89z"/>
        <path id="BT"
              d="M265.65 325.99c-7.41 4.28-19.42 4.28-26.83 0s-7.41-11.21 0-15.49 19.42-4.28 26.83 0 7.41 11.21 0 15.49z"/>
        <path id="BU"
              d="M241.29 324.57c-6.04-3.49-6.04-9.16 0-12.64 6.04-3.49 15.86-3.49 21.9 0s6.04 9.16 0 12.64c-6.04 3.49-15.86 3.49-21.9 0zm20.68-11.94c-5.37-3.1-14.1-3.1-19.46 0-5.37 3.1-5.37 8.14 0 11.24s14.1 3.1 19.46 0c5.37-3.1 5.37-8.14 0-11.24z"/>
        <path id="BV"
              d="M258.2 315.49c-.46.27-1.1.33-1.58.06-.75-.44.11-1.57-1.17-2.31-.4-.23-.95-.32-1.4-.06-1.34.77 3.72 2.78.5 4.63-1.83 1.06-4.79.48-5.9-.06-.36-.18-.43-.09-.77.11-.69.4-.71.36-1.4-.03-.64-.37-.91-.41-.2-.82.22-.13.56-.24.31-.42-.46-.35-1.31-1.11-1.43-1.52-.13-.49.84-1.37 1.4-1.69.32-.19.8-.3 1.16-.09.96.56-1.19 1.57.98 2.82.31.18 1.16.51 1.62.24.42-.24.38-.36-.59-1.55-.82-.99-1.27-2.27.24-3.14 1.4-.81 3.65-.8 5.24-.19.43.17.43.12.81-.1.7-.4.71-.36 1.4.03.66.38.91.41.19.82-.2.11-.54.23-.35.41.15.12.67.63.75.68.17.1.52.14.77.28.52.3.26 1.4-.6 1.9z"/>
        <path id="BW"
              d="M271.21 313.56v-2.02l-.87-.57c-.89-1.63-2.44-3.17-4.68-4.46-7.41-4.28-19.42-4.28-26.83 0-2.52 1.46-4.18 3.22-4.99 5.08l-.57-.08v3.19l.07.5c.37 2.48 2.2 4.9 5.48 6.8 7.41 4.28 19.42 4.28 26.83 0 3.29-1.9 5.11-4.32 5.48-6.79l.07-.76v-.89z"/>
        <path id="BX"
              d="M241.13 310.82c-6.04-3.49-6.04-9.16 0-12.64 6.04-3.49 15.86-3.49 21.9 0s6.04 9.16 0 12.64c-6.04 3.49-15.86 3.49-21.9 0zm20.68-11.94c-5.37-3.1-14.1-3.1-19.47 0s-5.37 8.14 0 11.24 14.1 3.1 19.46 0c5.37-3.1 5.37-8.14 0-11.24z"/>
        <path id="BY"
              d="M258.05 301.74c-.46.27-1.1.33-1.58.06-.75-.44.11-1.57-1.17-2.31-.41-.23-.95-.32-1.4-.06-1.34.77 3.72 2.77.5 4.63-1.83 1.06-4.79.48-5.9-.06-.36-.18-.43-.09-.77.11-.68.4-.71.36-1.4-.03-.64-.37-.91-.41-.2-.82.22-.13.56-.24.31-.42-.46-.35-1.31-1.11-1.43-1.52-.13-.49.84-1.37 1.4-1.69.32-.19.8-.3 1.16-.09.96.56-1.19 1.57.98 2.82.31.18 1.16.51 1.62.24.42-.24.38-.36-.59-1.55-.82-.99-1.27-2.27.24-3.14 1.4-.81 3.65-.8 5.24-.19.43.17.43.12.81-.1.7-.4.71-.36 1.4.03.66.38.91.41.19.82-.2.11-.54.23-.35.41.15.12.67.63.75.68.17.1.52.14.77.28.52.3.27 1.4-.6 1.9z"/>
        <path id="BZ"
              d="M271.05 299.8v-2.02l-.87-.57c-.89-1.63-2.44-3.17-4.68-4.46-7.41-4.28-19.42-4.28-26.83 0-2.52 1.45-4.18 3.22-4.99 5.08l-.57-.08v3.19l.07.5c.37 2.48 2.2 4.9 5.48 6.8 7.41 4.28 19.42 4.28 26.83 0 3.29-1.9 5.11-4.32 5.48-6.8l.07-.76v-.89z"/>
        <path id="Ba"
              d="M273.68 333.15c-.46.27-1.1.33-1.58.06-.75-.44.11-1.57-1.17-2.31-.4-.23-.95-.32-1.4-.06-1.34.77 3.72 2.77.5 4.63-1.83 1.06-4.79.48-5.9-.06-.36-.18-.43-.09-.77.11-.68.4-.71.36-1.4-.03-.64-.37-.91-.41-.2-.82.22-.13.56-.24.31-.42-.46-.35-1.31-1.11-1.43-1.52-.13-.49.84-1.37 1.4-1.69.32-.19.8-.3 1.16-.09.96.56-1.19 1.57.98 2.82.31.18 1.16.51 1.62.24.42-.24.38-.36-.59-1.55-.82-.99-1.27-2.27.24-3.14 1.4-.81 3.65-.8 5.24-.19.43.17.43.12.81-.1.7-.4.71-.36 1.4.03.66.38.91.41.19.82-.2.11-.54.23-.35.41.15.12.67.63.75.68.17.1.52.14.77.28.52.3.27 1.4-.6 1.9z"/>
        <path id="Bb"
              d="M148.23 224.71l9.71 6.13c.52.33 1.2-.03 1.22-.64l.15-3.67a.9.9 0 0 0-.42-.79l-9.7-6.13c-.52-.33-1.2.03-1.22.64l-.15 3.66a.9.9 0 0 0 .42.79z"/>
        <path id="Bc" d="M241.06 628.11c-2.63 1.52-2.63 3.98 0 5.5s6.89 1.52 9.52 0 2.63-3.98 0-5.5-6.89-1.52-9.52 0z"/>
        <path id="Bd"
              d="M321.69 662.25l12.55 7.24c1.25.72 3.45.63 4.9-.2l3.05-1.76c1.45-.84 1.61-2.1.35-2.83l-12.55-7.24c-1.25-.72-3.45-.63-4.9.2l-3.05 1.76c-1.45.84-1.61 2.1-.35 2.83z"/>
        <path id="Be" d="M366.97 591.05l1.99-1.32-12.47-7.11-1.59 1.54 12.07 6.89z"/>
        <path id="Bf" d="M386.55 602.22l2.65-.93-14.48-8.27-2.18 1.21 14.01 7.99z"/>
        <linearGradient id="Bg" gradientUnits="userSpaceOnUse"/>
    </defs>
    <path d="M240.57 153.98c-.59-1.49-1.53-2.51-2.65-3.29-2.89-3.31-8.06-6.48-9.63-9.11-.03-.65-.03-1.3 0-1.96 3.17 3.05 6.96 5.42 11.54 5.76 4.14.31 7.86-2.75 7.18-7.14-.95-6.14-10.45-10.32-17.13-9.1.49-1.99 1.13-3.78 1.92-5.67 3.75 3.2 7.64 6.48 12.36 7.95 3.33 1.04 7.9.51 9.08-2.81 1.09-3.06-1.52-6.11-4.21-7.87a28.22 28.22 0 0 0-12.41-4.42c.53-1.52 1.26-2.96 2.17-4.29a27.84 27.84 0 0 0 12.44 8.44c1.47.49 3.05.85 4.56.5 3.1-.73 4.86-4.51 4.08-7.59-.77-3.08-3.47-5.36-6.44-6.47s-6.21-1.23-9.38-1.35l2.37-3.39c4.52 2.87 9.17 5.8 14.43 6.83 3.05.6 6.79.23 8.44-2.43 1.7-2.74.08-6.53-2.6-8.26-2.67-1.73-6.03-1.95-9.22-2.12 4.16-3.84 11.84-2.65 14.84-7.45.44-.7.74-1.51.76-2.34.04-2.43-2.46-4.26-4.88-4.38-4.47-.22-9.82 3.04-13.17 5.74-17.15 13.81-33.61 37.85-31.43 57.49.67 6.02 3.54 15.51 11.13 15.57 3.58.03 7.33-3.05 5.85-6.83z"
          fill="url(#A)"/>
    <path d="M222.09 184.96a1.93 1.93 0 0 0 .34.11c7 1.49 13.87.52 19.62-4.38 5.85-4.98 7.97-13.37 14.33-17.72 5.88-4.02 12.17-3.99 17.52-9.25 5.95-5.84 8.77-13.01 13.77-19.62 4.89-6.45 11.28-11.1 18.57-14.04 1.29-.52 1.23-2.38-.07-2.86-15.54-5.79-31.44-10.01-46.02.61-2.61 1.9-4.61 4.32-7.45 5.77-5.64 2.88-12.13 3.21-17.8 6.27-5.33 2.88-15.48 8.06-21.39 29.03-1.98 7.02-2.61 21.36 8.58 26.06z"
          class="BY"/>
    <path d="M236.86 70.96c.61-1.1 2.27-.89 2.63.31 2.51 8.26 6.12 17.91 4.37 26.06-1.87 8.75-11.43 13-12.97 21.67-2.93 16.47-2.07 32.67-20.7 40.23-20.37 8.27-30.17-8.65-29.59-26.06.6-18.08 15.95-21 24.48-33.58 4.74-6.99 7.92-11.25 15.84-15.7 8.41-4.73 13.3-8.23 15.94-12.95z"
          fill="url(#B)"/>
    <path d="M184.28 167.21c-.26 0-.51-.1-.7-.3a.98.98 0 0 1 .03-1.38c17.92-17.3 21.39-26.41 22.78-41.54.93-10.07 6.12-13.45 12.14-17.36 3.11-2.02 6.33-4.12 9.36-7.39 5.24-5.65 6.37-12.92 6.38-12.99.08-.53.58-.89 1.11-.83a.99.99 0 0 1 .83 1.11c-.05.32-1.21 7.92-6.88 14.04-3.2 3.45-6.67 5.71-9.73 7.7-5.82 3.78-10.41 6.77-11.26 15.9-1.44 15.64-5.01 25.04-23.38 42.77-.19.18-.43.27-.68.27z"
          class="BZ"/>
    <path d="M198.13 45.57a2.11 2.11 0 0 1 2.36.28c12.14 10.56 22.82 22.25 20.64 39.64-.4 3.21-1.55 6.12-1.45 9.31.21 6.33 3.06 12.17 3.12 18.61.06 6.06.44 17.45-15.06 32.77-5.15 5.09-17.26 12.52-26.76 5.26l-.62-.59c-4.58-5.37-6.98-11.78-5.5-19.1 1.53-7.52 7.84-13.44 8.57-21.11.67-7.09-2.39-12.58-.38-19.81 2.23-8.03 7.15-13.97 10.5-21.55 3.08-6.95 4.14-14.29 3.45-21.62-.08-.86.35-1.68 1.11-2.08h0z"
          fill="url(#C)"/>
    <path d="M178.69 177.45a1.05 1.05 0 0 1-.75-.32c-.46-.5-1.16-1.24 4.01-19.17 2.35-8.15 6.39-14.09 9.96-19.33 4.62-6.79 8.27-12.16 6.69-19.68-2.29-10.91.16-14.33 3.86-19.49 1.17-1.63 2.5-3.49 3.83-5.84 5.19-9.12-1.92-29.95-2-30.16-.18-.51.09-1.07.6-1.24.51-.18 1.07.1 1.24.6.31.89 7.47 21.88 1.85 31.76-1.39 2.44-2.75 4.34-3.95 6.01-3.52 4.91-5.65 7.88-3.53 17.95 1.75 8.33-2.3 14.29-6.99 21.18-3.48 5.12-7.43 10.92-9.7 18.78-3.98 13.8-4.28 16.89-4.27 17.54.04.07.06.15.08.23.11.53-.22 1.05-.75 1.16a1.23 1.23 0 0 1-.2.02z"
          class="BZ"/>
    <path d="M213.72 194.58c-.1 0-.2-.02-.3-.05-.51-.16-.8-.71-.64-1.23l6.63-20.79c6.37-20 15.66-23.88 26.42-28.38l2.01-.85c9.88-4.19 11.86-6.52 17.74-13.42l2.68-3.13c8.39-9.68 19.33-8.47 19.78-8.41.53.06.92.55.85 1.09-.06.53-.54.91-1.09.86-.1-.01-10.38-1.12-18.07 7.75l-2.67 3.11c-5.94 6.97-8.16 9.57-18.47 13.95l-2.02.85c-10.74 4.49-19.22 8.03-25.31 27.16l-6.63 20.79c-.13.42-.52.68-.93.68z"
          fill="url(#D)"/>
    <path d="M282.58 185.88l5.34 115.97c.14 2.94-.69 5.07-2.14 6.14-.75.56-2.85 2.34-3.9 2.29-1.04-.05.86-3.17-.38-3.89l-66.63-38.47c-4.87-2.81-9.04-9.96-9.31-15.97l-5.34-115.97c-.07-1.53-3.74-1.41-3.34-2.47.36-.96 2.87-1.88 3.55-2.39 1.51-1.14 3.71-1.13 6.21.32l66.63 38.47c4.87 2.81 9.04 9.96 9.31 15.97z"
          fill="url(#E)"/>
    <path d="M279.7,187.64l5.34,115.97c.28,6.01-3.44,8.6-8.31,5.79l-66.63-38.47c-4.87-2.81-9.04-9.96-9.31-15.97l-5.34-115.97c-.28-6.01,3.44-8.6,8.31-5.79l66.63,38.47c4.87,2.81,9.04,9.96,9.31,15.97Z"
          fill="url(#F)"/>
    <path d="M234.27 150.82l6.35 137.73-19.63-11.33-6.35-137.73 19.63 11.33z" fill="url(#G)"/>
    <path d="M249.44 182.18c2.95 1.71 5.46 5.65 5.61 8.8.15 3.16-2.13 4.34-5.08 2.63s-5.46-5.65-5.61-8.8c-.15-3.16 2.13-4.34 5.08-2.63z"
          fill="url(#H)"/>
    <path d="M249.01 172.95c2.95 1.7 5.46 5.65 5.61 8.8.15 3.16-2.13 4.34-5.08 2.63s-5.46-5.65-5.61-8.8c-.15-3.16 2.13-4.34 5.08-2.63zm7.48 97.37l.66 14.22c.08 1.74-1 2.49-2.41 1.68l-4.22-2.44c-1.41-.81-2.62-2.88-2.7-4.62l-.66-14.22c-.08-1.74 1-2.49 2.41-1.68l4.22 2.44c1.41.81 2.62 2.88 2.7 4.62z"
          class="BZ"/>
    <path d="M217.04 80.36l-87.08-55.2c-3.87-2.45-7.49-2.82-10.38-1.44-.42.2-.81.43-1.19.69l-5.25 3.06h2.44c-1.43 2.33-2.33 5.5-2.49 9.38l-8.65 208.73c-.5 12.04 6.24 26.33 15.06 31.92l87.07 55.2c1.6 1.01 3.16 1.67 4.64 1.99l.7 2.42 5.02-2.96c.44-.21.86-.46 1.27-.75 3.01-2.15 4.99-6.43 5.23-12.39l8.65-208.73c.5-12.04-6.24-26.33-15.06-31.92z"
          fill="url(#I)"/>
    <path d="M201.24,335.82l-87.07-55.2c-8.82-5.59-15.56-19.88-15.06-31.92l8.65-208.73c.5-12.04,8.05-17.27,16.86-11.68l87.07,55.2c8.82,5.59,15.56,19.88,15.06,31.92l-8.65,208.73c-.5,12.04-8.05,17.27-16.87,11.68Z"
          fill="url(#J)"/>
    <path d="M206.49,86.78l-10.42-6.61-.14,3.43c-.19,4.61-3.33,4.43-7.11,2.03l-42.63-27.02c-3.78-2.4-6.78-6.1-6.59-10.71l.14-3.43-10.42-6.61c-8.71-5.52-16.12-1.4-16.56,9.21l-7.29,181.17c-.44,10.6,6.26,23.67,14.97,29.19l77.17,48.93c8.71,5.52,16.12,1.4,16.56-9.21l7.29-181.17c.44-10.6-6.26-23.67-14.97-29.19Z"
          fill="url(#K)"/>
    <path d="M167.33 65.12l-20.05-12.68c-.59-.37-1.04-1.33-1.01-2.14s.54-1.16 1.13-.78l20.05 12.68c.59.37 1.04 1.33 1.01 2.14s-.54 1.16-1.13.78z"
          fill="url(#L)"/>
    <path d="M176.28 69.48c-.17 1.16-1.05 1.52-1.98.79s-1.54-2.26-1.38-3.42c.17-1.16 1.05-1.52 1.98-.79s1.54 2.26 1.38 3.42z"
          fill="url(#M)"/>
    <path d="M182.53 73.32c-.17 1.16-1.05 1.52-1.98.79s-1.54-2.26-1.38-3.42 1.05-1.52 1.98-.79 1.54 2.26 1.38 3.42z"
          fill="url(#N)"/>
    <path d="M214.53 171c.15-2.07-4.09-4.23-7.92-5.73l-15.37-6.18c-.8-.32-1.52.19-1.61 1.16l-.77 8.95c-.08.96.5 2 1.31 2.33l19.16 7.71c.8.32 1.52-.19 1.61-1.16l.39-4.58c1.07-.35 2.04-.86 2.77-1.61.27-.28.41-.58.43-.89z"
          fill="url(#O)"/>
    <path d="M213.65 171.39c.15-2.07-4.09-4.23-7.92-5.73l-15.37-6.18c-.8-.32-1.52.19-1.61 1.16l-.77 8.95c-.08.96.5 2.01 1.31 2.33l19.16 7.71c.8.32 1.52-.19 1.61-1.16l.39-4.58c1.07-.35 2.04-.86 2.77-1.61.27-.28.41-.58.43-.89z"
          fill="url(#P)"/>
    <path d="M192.56,194.66l-63.23-22.3c-3.54-1.25-6.22-5.05-5.98-8.5l3.03-44.36c.23-3.44,3.29-5.22,6.83-3.98l63.23,22.3c3.54,1.25,6.22,5.05,5.98,8.5l-3.03,44.36c-.23,3.44-3.29,5.22-6.83,3.98Z"
          fill="url(#Q)"/>
    <path d="M191.19,195.55l-63.23-22.3c-3.54-1.25-6.22-5.05-5.98-8.5l3.03-44.36c.23-3.44,3.29-5.22,6.83-3.98l63.23,22.3c3.54,1.25,6.22,5.05,5.98,8.5l-3.03,44.36c-.23,3.44-3.29,5.22-6.83,3.98Z"
          fill="url(#R)"/>
    <path d="M175.91 159.52c-1.42-.37-2.91.03-4.01 1-1.87 1.65-5.46 3.72-10.65 2.12-6.55-2.02-9.02-5.75-9.94-8.19-.61-1.61-1.94-2.84-3.57-3.39l-12.98-4.33c-1.89-.63-3.87.69-4 2.68l-.89 13.01c-.2 2.88 2.04 6.05 5 7.1l52.82 18.63c2.96 1.04 5.51-.44 5.71-3.32l1.22-17.83a3.04 3.04 0 0 0-2.26-3.15l-16.43-4.33z"
          fill="url(#S)"/>
    <path d="M194.6 166.99a3.04 3.04 0 0 0-2.26-3.15l-16.43-4.32c-.46-.12-.93-.13-1.4-.1l16.42 4.32c1.41.37 2.36 1.7 2.26 3.15l-1.22 17.83c-.14 2.11-1.57 3.47-3.48 3.63 2.59.52 4.71-.92 4.89-3.53l1.22-17.83z"
          fill="url(#T)"/>
    <path d="M133.34 146.62l12.98 4.33c1.64.55 2.96 1.78 3.57 3.39.93 2.44 3.39 6.16 9.94 8.19 1.31.4 2.51.57 3.62.58-.7-.09-1.44-.24-2.21-.48-6.55-2.02-9.02-5.75-9.94-8.19-.61-1.61-1.94-2.84-3.57-3.39l-12.98-4.33a3.05 3.05 0 0 0-1.46-.11c.02 0 .04 0 .06.01z"
          fill="url(#U)"/>
    <path d="M213.05 171.43c-1.91 1.96-5.49 2.31-8.12 2.28a19.57 19.57 0 0 1-1.4-.06 1.87 1.87 0 0 0-1.99 1.74l-.62 8.77c-.07 1.06 1.42 2.34 2.48 2.42 2.6.16 6.51-.33 8.76-2.63.27-.28.41-.58.43-.89l1.9-11.58c.09-.56.01-.87.01-.87l-1.03-.07c-.02.31-.16.61-.43.89z"
          fill="url(#V)"/>
    <path d="M214.1 171.89c-1.91 1.96-5.49 2.31-8.12 2.28a19.57 19.57 0 0 1-1.4-.06 1.87 1.87 0 0 0-1.99 1.74l-.62 8.76c-.07 1.06.73 1.95 1.78 2.02 2.61.16 7.21.07 9.46-2.23.27-.28.41-.58.43-.89l.88-12.52c-.02.31-.16.61-.43.89z"
          fill="url(#W)"/>
    <path d="M176.35 177.7c-.02.49-.2.84-.47 1.04 0 .02-6.37 3.13-6.37 3.13l-4.74-15.25-.15-.09 1.05-51.81 12.85-6.52c.34.62.54 1.29.52 1.87l-2.7 67.63z"
          fill="url(#X)"/>
    <path d="M151.84 158.46c-1.2-.76-2.12-2.36-2.08-3.58l2.19-54.98-9.96-7.96 5.89-2.86c.42-.31 1.08-.28 1.82.19l27.26 17.22c.63.4 1.18 1.03 1.55 1.71l-12.85 6.52-1.05 51.81-12.78-8.07z"
          fill="url(#Y)"/>
    <path d="M172.83 113.09l-2.7 67.63c-.05 1.22-1.06 1.6-2.25.85l-27.26-17.22c-1.2-.76-2.12-2.36-2.08-3.58l2.7-67.63c.05-1.22 1.06-1.6 2.25-.85l27.26 17.22c1.2.76 2.12 2.36 2.08 3.58z"
          fill="url(#Z)"/>
    <use xlink:href="#BQ" fill="url(#a)"/>
    <path d="M143.47 102.2v.27l-2.06 51.4-.04 1.02-.1 2.5c-.08 2.01 1.23 4.51 2.94 5.59l2.11 1.34 16.15 10.2 2.11 1.34c1.7 1.07 3.15.32 3.23-1.69l.1-2.5.15-3.82 1.95-48.87v-.59l.02.06.08-1.96c.08-2.01-1.23-4.51-2.94-5.59l-2.11-1.34-.7-.44-15.45-9.76-2.11-1.34c-1.7-1.07-3.15-.32-3.23 1.69l-.1 2.5zm23.22 67.51c-.13 3.2-2.43 4.41-5.14 2.7l-14.2-8.97c-2.71-1.71-4.8-5.69-4.67-8.89l2.01-50.39c.13-3.2 2.43-4.41 5.14-2.7l14.2 8.97c2.71 1.71 4.8 5.69 4.67 8.89l-2.01 50.39z"
          fill="url(#b)"/>
    <path d="M156.04 128.16c4.71 2.98 8.37 9.37 8.18 14.29-.2 4.91-4.17 6.49-8.88 3.51s-8.37-9.37-8.17-14.29c.2-4.91 4.17-6.49 8.88-3.51z"
          fill="url(#c)"/>
    <path d="M148.3 154.44l-.18 4.58c-.02.57-.49.75-1.05.4l-1.24-.78c-.56-.35-.99-1.1-.97-1.68l.18-4.58c.02-.57.5-.75 1.05-.4l1.24.78c.56.35.99 1.1.97 1.68z"
          fill="url(#d)"/>
    <use xlink:href="#BR" fill="url(#e)"/>
    <path d="M177.48 108.82c-.07-.13-.2-.22-.36-.23-.23 0-.43.17-.44.41l-2.62 65.74c-.01.23.17.43.4.44.23 0 .43-.17.44-.4l2.62-65.74c0-.08-.01-.15-.05-.21z"
          fill="url(#f)"/>
    <path d="M175.9 109.74a.38.38 0 0 0-.15-.16L150.7 93.75c-.2-.12-.46-.07-.58.13s-.07.46.13.58l25.05 15.83c.2.12.46.07.58-.13.08-.13.08-.29.02-.42z"
          fill="url(#g)"/>
    <path d="M188.17 198.62c-.02.49-.2.84-.47 1.04 0 .02-6.37 3.13-6.37 3.13l-4.74-15.25-.15-.09 1.05-51.81 12.86-6.52c.34.62.54 1.29.52 1.87l-2.7 67.63z"
          fill="url(#h)"/>
    <path d="M163.66 179.38c-1.2-.76-2.12-2.36-2.08-3.58l2.19-54.98-9.96-7.96 5.89-2.86c.42-.31 1.08-.28 1.82.19l27.26 17.22c.63.4 1.18 1.03 1.55 1.71l-12.86 6.52-1.05 51.81-12.78-8.07z"
          fill="url(#i)"/>
    <path d="M184.65 134.02l-2.7 67.63c-.05 1.22-1.06 1.6-2.25.85l-27.26-17.22c-1.2-.76-2.12-2.36-2.08-3.58l2.7-67.63c.05-1.22 1.06-1.6 2.25-.85l27.26 17.22c1.2.75 2.12 2.36 2.08 3.58z"
          fill="url(#j)"/>
    <use xlink:href="#BQ" x="11.82" y="20.93" fill="url(#k)"/>
    <path d="M155.29 123.12v.27l-2.06 51.4-.04 1.02-.1 2.5c-.08 2.01 1.23 4.51 2.94 5.59l2.11 1.34 16.15 10.2 2.11 1.34c1.7 1.07 3.15.32 3.23-1.69l.1-2.5.15-3.82 1.95-48.87v-.59l.02.06.08-1.96c.08-2.01-1.23-4.51-2.94-5.59l-2.11-1.34-.7-.44-15.45-9.76-2.11-1.34c-1.7-1.07-3.15-.32-3.23 1.69l-.1 2.5zm23.22 67.51c-.13 3.2-2.43 4.41-5.14 2.7l-14.2-8.97c-2.71-1.71-4.8-5.69-4.67-8.89l2.01-50.39c.13-3.2 2.43-4.41 5.13-2.7l14.2 8.97c2.71 1.71 4.8 5.69 4.67 8.89l-2.01 50.39z"
          fill="url(#l)"/>
    <path d="M167.86 149.08c4.71 2.98 8.37 9.37 8.17 14.29-.2 4.91-4.17 6.49-8.88 3.51s-8.37-9.37-8.17-14.29 4.17-6.49 8.88-3.51z"
          fill="url(#m)"/>
    <use xlink:href="#BQ" x="-6.51" y="58.4" fill="url(#n)"/>
    <use xlink:href="#BR" x="11.82" y="20.93" fill="url(#o)"/>
    <use xlink:href="#BR" x="14.46" y="19.87" fill="url(#p)"/>
    <path d="M187.72 130.66a.38.38 0 0 0-.15-.16l-25.05-15.83a.41.41 0 0 0-.58.13c-.12.2-.07.46.13.58l25.05 15.83c.2.12.46.07.58-.13.08-.13.08-.29.02-.42z"
          fill="url(#q)"/>
    <path d="M179.06,217.57l-51.95-35.08c-2.91-1.96-5.03-6.83-4.75-10.87l3.67-52.06c.28-4.04,2.87-5.73,5.78-3.76l51.95,35.08c2.91,1.96,5.03,6.83,4.75,10.87l-3.67,52.06c-.28,4.04-2.87,5.73-5.78,3.76Z"
          fill="url(#r)"/>
    <path d="M177.41,218.27l-51.95-35.08c-2.91-1.96-5.03-6.83-4.75-10.87l3.67-52.06c.28-4.04,2.87-5.73,5.78-3.76l51.95,35.08c2.91,1.96,5.03,6.83,4.75,10.87l-3.67,52.06c-.28,4.04-2.87,5.73-5.78,3.76Z"
          fill="url(#s)"/>
    <path d="M170.56 208.4c-.19 0-.39-.05-.58-.17-.04-.02-.12-.08-.15-.1l-5.06-3.4a1.13 1.13 0 0 1-.3-1.58 1.15 1.15 0 0 1 1.58-.31l5.12 3.45c.51.35.68 1.06.34 1.58-.22.34-.58.53-.95.53zm-12.82-8.67c-.22 0-.44-.06-.64-.19l-7.68-5.18a1.13 1.13 0 0 1-.3-1.58 1.15 1.15 0 0 1 1.58-.31l7.68 5.18a1.13 1.13 0 0 1 .3 1.58c-.22.33-.58.5-.94.5zm-15.35-10.37a1.11 1.11 0 0 1-.63-.19l-7.68-5.18a1.14 1.14 0 0 1-.31-1.58 1.15 1.15 0 0 1 1.58-.31l7.68 5.18a1.14 1.14 0 0 1 .31 1.58 1.15 1.15 0 0 1-.94.5zm36.88-2.91h-.08c-.63-.04-1.1-.59-1.05-1.21l.65-9.24c.04-.63.65-1.11 1.21-1.05.63.04 1.1.59 1.05 1.21l-.65 9.24c-.04.6-.54 1.06-1.13 1.06zm-51.34-8.38a1.13 1.13 0 0 1-1.02-.64c-.85-1.73-1.31-3.66-1.31-5.43l.02-.68.25-3.54c.04-.63.63-1.09 1.21-1.05.63.04 1.1.59 1.05 1.21l-.25 3.53-.02.52c0 1.43.38 3.01 1.08 4.43.28.56.04 1.24-.52 1.52-.16.08-.33.12-.5.12zm52.64-10.1h-.08c-.63-.04-1.1-.59-1.05-1.21l.25-3.5.02-.53c0-1.44-.39-3.03-1.09-4.46-.28-.56-.04-1.24.52-1.52.57-.28 1.24-.05 1.52.52.85 1.74 1.32 3.68 1.32 5.46l-.02.68-.25 3.51c-.04.6-.54 1.06-1.13 1.06zm-52.91-8.2h-.08c-.63-.04-1.1-.59-1.05-1.21l.65-9.24a1.15 1.15 0 0 1 1.21-1.05c.63.04 1.1.59 1.05 1.21l-.65 9.24c-.04.6-.54 1.06-1.13 1.06zm45.18-6.95c-.22 0-.44-.06-.64-.19l-7.68-5.18a1.13 1.13 0 0 1-.3-1.58 1.15 1.15 0 0 1 1.58-.31l7.68 5.18a1.13 1.13 0 0 1 .3 1.58 1.15 1.15 0 0 1-.94.5zm-15.35-10.37c-.22 0-.44-.06-.64-.19l-7.68-5.18a1.13 1.13 0 0 1-.3-1.58 1.15 1.15 0 0 1 1.58-.31l7.68 5.18a1.13 1.13 0 0 1 .3 1.58 1.15 1.15 0 0 1-.94.5zm-28.31-3.52h-.08c-.63-.01-1.11-.4-1.08-.87l.44-6.9c.03-.47.62-.84 1.19-.82.63.01 1.11.4 1.08.87l-.44 6.9c-.03.45-.52.8-1.11.82zm12.96-6.85a1.11 1.11 0 0 1-.63-.19l-5.1-3.45c-.51-.35-.67-1.05-.33-1.57s1.01-.68 1.54-.35l.23.18 4.93 3.31a1.14 1.14 0 0 1 .31 1.58c-.22.33-.58.5-.94.5zm37.26 63.77l-.21 3.51c-.01.22-.04.45-.07.68-.23 1.77-.95 3.63-2.02 5.24-.35.53-1.05.66-1.58.32a1.14 1.14 0 0 1-.32-1.57c.88-1.33 1.47-2.85 1.66-4.28l.05-.52.21-3.5c.04-.63.58-1.1 1.2-1.07h.08a1.13 1.13 0 0 1 .98 1.19zm-51.21-60.59l.19-3.51.06-.68c.22-1.77.93-3.64 1.99-5.25.35-.53 1.05-.67 1.57-.33a1.14 1.14 0 0 1 .33 1.57c-.88 1.33-1.46 2.86-1.64 4.29l-.05.52-.19 3.5c-.03.63-.57 1.11-1.2 1.07h-.08c-.59-.07-1.02-.59-.99-1.19z"
          class="BZ"/>
    <path d="M204.69 180.74c.11-1.55 1.46-2.72 3.01-2.62a2.83 2.83 0 0 1 2.62 3.01 2.83 2.83 0 0 1-3.01 2.62 2.83 2.83 0 0 1-2.62-3.01z"
          fill="url(#t)"/>
    <path d="M205.58 180.8a2.06 2.06 0 1 1 4.11.29 2.06 2.06 0 1 1-4.11-.29z" class="BZ"/>
    <use xlink:href="#BS" class="BY"/>
    <use xlink:href="#BT" class="Ba"/>
    <g class="BY">
        <use xlink:href="#BU"/>
        <path d="M258.2 318.89c-.46.27-1.1.33-1.58.06-.75-.44.11-1.57-1.17-2.31-.4-.23-.95-.32-1.4-.06-1.34.77 3.72 2.77.5 4.63-1.83 1.06-4.79.48-5.9-.06-.36-.18-.43-.09-.77.1-.69.4-.71.36-1.4-.03-.64-.37-.91-.41-.2-.82.22-.13.56-.24.31-.42-.46-.35-1.31-1.11-1.43-1.52-.13-.49.84-1.37 1.4-1.69.32-.19.8-.3 1.16-.09.96.56-1.19 1.57.98 2.82.31.18 1.16.51 1.62.24.42-.24.38-.36-.59-1.55-.82-.99-1.27-2.27.24-3.14 1.4-.81 3.65-.8 5.24-.19.43.17.43.12.81-.1.7-.4.71-.36 1.4.03.66.38.91.41.19.82-.2.11-.54.23-.35.41.15.12.67.63.75.68.17.1.52.14.77.28.52.3.26 1.4-.6 1.9z"/>
        <use xlink:href="#BS" y="-3.4"/>
    </g>
    <use xlink:href="#BT" y="-3.4" class="Ba"/>
    <g class="BY">
        <use xlink:href="#BU" y="-3.4"/>
        <use xlink:href="#BV"/>
        <use xlink:href="#BW"/>
    </g>
    <use xlink:href="#BT" y="-6.65" class="Ba"/>
    <g class="BY">
        <use xlink:href="#BU" y="-6.65"/>
        <use xlink:href="#BV" y="-3.25"/>
        <path d="M271.21 310.15v-2.02l-.87-.57c-.89-1.63-2.44-3.17-4.68-4.46-7.41-4.28-19.42-4.28-26.83 0-2.52 1.46-4.18 3.22-4.99 5.08l-.57-.08v3.2l.07.5c.37 2.48 2.2 4.9 5.48 6.8 7.41 4.28 19.42 4.28 26.83 0 3.29-1.9 5.11-4.32 5.48-6.79l.07-.76v-.89z"/>
    </g>
    <use xlink:href="#BT" y="-10.05" class="Ba"/>
    <g class="BY">
        <use xlink:href="#BU" y="-10.05"/>
        <path d="M247.24 310.22c-.45-.26-.84-.55-1.19-.88-.34-.33-.6-.65-.78-.96-.1-.17-.16-.33-.19-.47-.04-.18.17-.34.47-.39l1.15-.19c.36-.06.73.08.79.29.19.6.68 1.14 1.48 1.6.51.29 1 .46 1.48.51a2.07 2.07 0 0 0 1.27-.25c.28-.16.43-.33.44-.49 0-.17-.07-.33-.22-.51-.16-.17-.34-.35-.56-.53l-.81-.74a2.29 2.29 0 0 1-.56-.8c-.11-.28-.09-.57.08-.87.16-.3.54-.62 1.12-.96a5.51 5.51 0 0 1 3.04-.76c1.09.03 2.15.35 3.19.95.47.27.87.6 1.19.99a3.17 3.17 0 0 1 .54.91c.07.18-.13.35-.43.41l-1.08.21c-.35.07-.73-.06-.82-.27-.2-.52-.58-.93-1.13-1.25-.47-.27-.93-.43-1.37-.47s-.83.03-1.16.22c-.32.18-.47.36-.48.54 0 .18.08.37.26.56l.59.59.75.73c.23.25.39.51.47.79.08.27.04.55-.14.84-.17.29-.53.59-1.07.91-.94.54-1.95.78-3.05.74-1.1-.05-2.19-.38-3.27-1.01zm9.1-6.08l.61-.35a1.02 1.02 0 0 1 .9 0l.91.52c.25.14.25.38 0 .52l-.61.35a1.02 1.02 0 0 1-.9 0l-.91-.52c-.25-.14-.25-.38 0-.52zm-10.43 6.02l.69-.4a1.02 1.02 0 0 1 .9 0l.91.52c.25.14.25.38 0 .52l-.69.4a1.02 1.02 0 0 1-.9 0l-.91-.53c-.25-.14-.25-.38 0-.52z"/>
        <use xlink:href="#BW" x="-0.16" y="-7.1"/>
    </g>
    <use xlink:href="#BT" x="-0.15" y="-13.75" class="Ba"/>
    <g class="BY">
        <use xlink:href="#BX"/>
        <path d="M258.05 305.14c-.46.27-1.1.33-1.58.06-.75-.44.11-1.57-1.17-2.31-.41-.23-.95-.32-1.4-.06-1.34.77 3.72 2.78.5 4.63-1.83 1.06-4.79.48-5.9-.06-.36-.18-.43-.09-.77.11-.68.4-.71.36-1.4-.03-.64-.37-.91-.41-.2-.82.22-.13.56-.24.31-.42-.46-.35-1.31-1.11-1.43-1.52-.13-.49.84-1.37 1.4-1.69.32-.19.8-.3 1.16-.09.96.56-1.19 1.57.98 2.82.31.18 1.16.51 1.62.24.42-.24.38-.36-.59-1.55-.82-.99-1.27-2.27.24-3.14 1.4-.81 3.65-.8 5.24-.19.43.17.43.12.81-.1.7-.4.71-.36 1.4.03.66.38.91.41.19.82-.2.11-.54.23-.35.41.15.12.67.63.75.68.17.1.52.14.77.28.52.3.27 1.4-.6 1.9z"/>
        <use xlink:href="#BW" x="-0.16" y="-10.51"/>
    </g>
    <use xlink:href="#BT" x="-0.15" y="-17.15" class="Ba"/>
    <g class="BY">
        <path d="M241.13 307.42c-6.04-3.49-6.04-9.16 0-12.64 6.04-3.49 15.86-3.49 21.9 0s6.04 9.16 0 12.65-15.86 3.49-21.9 0zm20.68-11.94c-5.37-3.1-14.1-3.1-19.47 0s-5.37 8.14 0 11.24 14.1 3.1 19.46 0c5.37-3.1 5.37-8.14 0-11.24z"/>
        <use xlink:href="#BY"/>
        <use xlink:href="#BZ"/>
    </g>
    <use xlink:href="#BT" x="-0.15" y="-20.4" class="Ba"/>
    <g class="BY">
        <use xlink:href="#BX" y="-6.65"/>
        <use xlink:href="#BY" y="-3.26"/>
        <use xlink:href="#BZ" y="-3.4"/>
    </g>
    <use xlink:href="#BT" x="-0.15" y="-23.8" class="Ba"/>
    <g class="BY">
        <use xlink:href="#BX" y="-10.05"/>
        <path d="M247.09 296.47c-.45-.26-.84-.55-1.19-.88-.34-.33-.6-.65-.78-.96-.1-.17-.16-.33-.19-.47-.04-.18.17-.34.47-.39l1.15-.19c.36-.06.73.08.79.29.19.6.68 1.14 1.48 1.6.51.29 1 .46 1.48.51a2.07 2.07 0 0 0 1.27-.25c.28-.16.43-.33.44-.49 0-.17-.06-.33-.22-.51-.16-.17-.34-.35-.56-.53l-.81-.74a2.29 2.29 0 0 1-.56-.8c-.11-.28-.09-.57.08-.87.16-.3.54-.62 1.12-.96a5.51 5.51 0 0 1 3.04-.76c1.09.03 2.15.35 3.19.95.47.27.87.6 1.19.99a3.17 3.17 0 0 1 .54.91c.07.18-.13.35-.43.41l-1.08.21c-.35.07-.73-.06-.82-.27-.2-.52-.58-.93-1.13-1.25-.47-.27-.93-.43-1.37-.47s-.83.03-1.16.22c-.31.18-.47.36-.48.54 0 .18.08.37.26.56l.59.59.75.73c.23.25.39.51.47.79.08.27.04.55-.14.84-.17.29-.53.59-1.07.91-.94.54-1.95.78-3.05.74-1.1-.05-2.19-.38-3.27-1.01zm9.1-6.08l.61-.35a1.02 1.02 0 0 1 .9 0l.91.52c.25.14.25.38 0 .52l-.61.35a1.02 1.02 0 0 1-.9 0l-.91-.52c-.25-.14-.25-.38 0-.52zm-10.43 6.02l.69-.4a1.02 1.02 0 0 1 .9 0l.91.53c.25.14.25.38 0 .52l-.69.4a1.02 1.02 0 0 1-.9 0l-.91-.52c-.25-.14-.25-.38 0-.52z"/>
        <use xlink:href="#BS" x="15.48" y="14.26"/>
    </g>
    <use xlink:href="#BT" x="15.48" y="14.26" class="Ba"/>
    <g class="BY">
        <use xlink:href="#BU" x="15.48" y="14.26"/>
        <use xlink:href="#Ba"/>
        <use xlink:href="#BS" x="15.48" y="10.86"/>
    </g>
    <use xlink:href="#BT" x="15.48" y="10.86" class="Ba"/>
    <g class="BY">
        <use xlink:href="#BU" x="15.48" y="10.86"/>
        <use xlink:href="#Ba" y="-3.4"/>
        <use xlink:href="#BS" x="15.48" y="7.61"/>
    </g>
    <use xlink:href="#BT" x="15.48" y="7.61" class="Ba"/>
    <g class="BY">
        <use xlink:href="#BX" x="15.64" y="21.36"/>
        <use xlink:href="#Ba" y="-6.65"/>
        <use xlink:href="#BS" x="15.48" y="4.2"/>
    </g>
    <use xlink:href="#BT" x="15.48" y="4.21" class="Ba"/>
    <g class="BY">
        <use xlink:href="#BX" x="15.64" y="17.96"/>
        <path d="M262.72 324.48c-.45-.26-.84-.55-1.19-.88-.34-.33-.6-.65-.78-.96-.1-.17-.16-.33-.19-.47-.04-.18.17-.34.47-.39l1.15-.19c.36-.06.73.08.79.29.19.6.68 1.14 1.48 1.6.51.29 1 .46 1.48.51a2.07 2.07 0 0 0 1.27-.25c.28-.16.43-.33.44-.49 0-.17-.07-.33-.22-.51-.16-.17-.34-.35-.56-.53l-.81-.74a2.29 2.29 0 0 1-.56-.8c-.11-.28-.09-.57.08-.87s.54-.62 1.12-.96a5.51 5.51 0 0 1 3.04-.76c1.09.03 2.15.35 3.19.95.47.27.87.6 1.19.99a3.17 3.17 0 0 1 .54.91c.07.18-.13.35-.43.41l-1.08.21c-.35.07-.73-.06-.82-.27-.2-.52-.58-.93-1.13-1.25-.47-.27-.93-.43-1.37-.47s-.83.03-1.16.22c-.31.18-.47.36-.48.54 0 .18.08.37.26.56l.59.59.75.73c.23.25.39.51.47.78s.04.55-.14.84c-.17.29-.53.59-1.07.91-.94.54-1.95.78-3.05.74-1.1-.05-2.19-.38-3.27-1.01zm9.1-6.08l.61-.35a1.02 1.02 0 0 1 .9 0l.91.52c.25.14.25.38 0 .52l-.61.35a1.02 1.02 0 0 1-.9 0l-.91-.52c-.25-.14-.25-.38 0-.52zm-10.43 6.02l.69-.4a1.02 1.02 0 0 1 .9 0l.91.52c.25.14.25.38 0 .52l-.69.4a1.02 1.02 0 0 1-.9 0l-.91-.53c-.25-.14-.25-.38 0-.52z"/>
    </g>
    <g fill="#00b1cc">
        <path d="M158.33 250.2l.55-13.94c.03-.68-.49-1.58-1.16-2l-8.84-5.58c-.67-.42-1.23-.21-1.26.47l-.55 13.94c-.03.68-.59.89-1.26.47l-1.92-1.21c-.94-.59-1.56.09-1.11 1.22l8.16 20.49c.44 1.1 1.57 1.81 2.07 1.31l9.34-9.44c.51-.52-.02-1.93-.96-2.52l-1.92-1.21c-.67-.42-1.19-1.32-1.16-2z"/>
        <use xlink:href="#Bb" opacity=".53"/>
        <use xlink:href="#Bb" x="0.35" y="-8.9" opacity=".2"/>
    </g>
    <path d="M144.08 291.55l11.87 7.92c2.16 1.44 4.07.18 4.27-2.81h0c.19-3-1.4-6.59-3.57-8.04l-11.87-7.92c-2.16-1.44-4.07-.18-4.27 2.81h0c-.19 3 1.4 6.59 3.57 8.04z"
          fill="url(#u)"/>
    <path d="M239.32 540.51c-1.09-1.18-2.34-1.78-3.67-2.1-3.89-2.03-9.86-3.09-12.29-4.97a24.86 24.86 0 0 1-.72-1.83c4.06 1.69 8.46 2.51 12.85 1.16 3.96-1.22 6.31-5.43 4.08-9.27-3.12-5.37-13.49-5.8-19.26-2.22-.26-2.03-.32-3.93-.28-5.98 4.66 1.61 9.48 3.25 14.4 2.9 3.48-.25 7.54-2.4 7.43-5.92-.1-3.24-3.65-5.13-6.78-5.79-4.33-.91-8.89-.77-13.17.41-.06-1.61.1-3.22.45-4.79a27.73 27.73 0 0 0 14.66 3.32c1.54-.08 3.15-.32 4.43-1.2 2.62-1.81 2.88-5.97 1.04-8.56s-5.19-3.73-8.36-3.68-6.23 1.12-9.23 2.17l.97-4.02c5.25 1.03 10.65 2.05 15.93 1.1 3.05-.56 6.41-2.26 6.97-5.34.58-3.17-2.31-6.11-5.43-6.74-3.12-.64-6.33.38-9.36 1.39 2.47-5.09 10.05-6.79 11.1-12.35.15-.82.14-1.68-.15-2.45-.85-2.28-3.84-3.07-6.14-2.3-4.24 1.42-8.04 6.41-10.17 10.14-10.93 19.11-17.49 47.5-8.31 64.99 2.82 5.36 8.95 13.15 16.04 10.44 3.35-1.28 5.71-5.51 2.95-8.49z"
          fill="url(#v)"/>
    <path d="M248.48 548.77c-.52-1.52-1.42-2.58-2.5-3.41-2.74-3.43-7.77-6.82-9.23-9.52 0-.65.03-1.3.09-1.96 3.03 3.19 6.72 5.72 11.28 6.25 4.12.49 7.97-2.41 7.48-6.83-.68-6.17-9.99-10.76-16.72-9.83.58-1.96 1.3-3.72 2.17-5.58 3.61 3.36 7.35 6.8 12 8.48 3.28 1.18 7.87.85 9.19-2.41 1.22-3.01-1.26-6.17-3.86-8.04a28.26 28.26 0 0 0-12.21-4.95c.6-1.49 1.39-2.91 2.35-4.2a27.85 27.85 0 0 0 12.07 8.97c1.45.55 3.01.99 4.54.69 3.13-.6 5.05-4.29 4.41-7.41-.64-3.11-3.24-5.51-6.16-6.74s-6.15-1.5-9.32-1.75l2.51-3.29c4.39 3.06 8.91 6.19 14.12 7.45 3.02.73 6.77.52 8.54-2.07 1.82-2.67.36-6.52-2.24-8.36s-5.94-2.21-9.13-2.51c4.32-3.66 11.94-2.14 15.15-6.8.47-.68.81-1.48.86-2.3.15-2.43-2.27-4.36-4.68-4.58-4.45-.42-9.94 2.61-13.41 5.16-17.73 13.06-35.21 36.37-33.89 56.08.41 6.05 2.86 15.64 10.45 16.04 3.58.19 7.45-2.73 6.14-6.57z"
          fill="url(#w)"/>
    <path d="M223.36 566.12c.1-.07.19-.14.27-.23 5.05-5.07 7.97-11.37 6.98-18.85-1-7.61-6.9-13.95-7.1-21.65-.18-7.12 3.25-12.38 1.75-19.74-1.67-8.16-6.17-14.43-8.99-22.22-2.76-7.61-3.2-15.5-1.7-23.22.26-1.36-1.33-2.32-2.45-1.49-13.3 9.91-25.47 20.96-24.47 38.98.18 3.23 1.12 6.21.8 9.39-.64 6.3-3.89 11.93-4.4 18.35-.48 6.04-1.64 17.38 12.76 33.73 4.82 5.48 16.52 13.79 26.55 6.95z"
          class="BY"/>
    <path d="M280.51 514.15c.76-1 2.37-.57 2.57.66 1.36 8.52 3.64 18.58.8 26.41-3.04 8.41-13.09 11.33-15.79 19.72-5.13 15.92-6.48 32.09-25.96 37.06-21.3 5.43-28.72-12.66-25.79-29.83 3.04-17.83 18.64-18.64 28.8-29.95 5.64-6.28 9.38-10.07 17.82-13.41 8.97-3.54 14.29-6.35 17.55-10.67z"
          fill="url(#x)"/>
    <path d="M209.97 586.05s-.1 0-.15-.01c-.53-.08-.9-.58-.82-1.12 4.42-28.89.13-38.58-3.33-46.37-1.21-2.73-2.35-5.3-2.97-8.37-1.12-5.47.09-9.52 1.16-13.1 1.31-4.39 2.44-8.19-.26-14.06-8.23-17.9-1.05-27.95-.74-28.37.32-.43.93-.53 1.36-.21s.53.93.21 1.37c-.07.09-6.77 9.6.94 26.39 3.01 6.54 1.66 11.06.35 15.44-1.05 3.52-2.13 7.16-1.12 12.15.58 2.86 1.63 5.23 2.85 7.97 3.56 8.02 7.98 18.01 3.47 47.46-.07.48-.49.83-.96.83zm6.32 18.78a.97.97 0 0 1-.91-.63c-.19-.5.06-1.07.57-1.26 25.36-9.64 29.94-34.64 31.67-44.06l.29-1.54c1.32-6.68 5.41-11.5 12.88-15.15 10.92-5.34 16.86-11.05 18.15-17.48a.99.99 0 0 1 1.15-.77c.53.11.87.62.77 1.15-1.43 7.06-7.71 13.23-19.21 18.85-6.88 3.36-10.63 7.74-11.82 13.77l-.28 1.51c-1.61 8.78-6.51 35.5-32.9 45.53a1.03 1.03 0 0 1-.35.06z"
          class="BZ"/>
    <path d="M80.64 625.76c-1.57.35-2.72 1.13-3.66 2.12-3.71 2.35-7.63 6.97-10.47 8.13-.64-.07-1.29-.17-1.94-.3 3.5-2.67 6.42-6.05 7.46-10.53.93-4.04-1.52-8.19-5.96-8.19-6.21 0-11.8 8.75-11.6 15.54-1.89-.79-3.56-1.7-5.31-2.77 3.74-3.22 7.57-6.56 9.74-11 1.53-3.13 1.71-7.73-1.39-9.4-2.85-1.54-6.27.57-8.42 2.96-2.96 3.29-5.13 7.3-6.26 11.59a18.35 18.35 0 0 1-3.91-2.8c4.34-2.64 7.92-6.49 10.24-11.01.71-1.38 1.31-2.88 1.19-4.43-.25-3.18-3.71-5.49-6.88-5.19-3.17.29-5.83 2.61-7.38 5.38-1.55 2.76-2.16 5.95-2.76 9.07l-2.99-2.86c3.53-4.03 7.13-8.18 8.95-13.22 1.05-2.92 1.26-6.67-1.12-8.71-2.45-2.1-6.44-1.07-8.56 1.31s-2.85 5.66-3.5 8.79c-3.16-4.7-.82-12.1-5.1-15.81-.63-.54-1.38-.96-2.19-1.1-2.4-.41-4.58 1.78-5.07 4.15-.9 4.38 1.51 10.17 3.66 13.89 11.03 19.06 32.28 38.99 52.02 39.84 6.05.26 15.86-1.13 17.09-8.62.58-3.54-1.9-7.71-5.86-6.82z"
          fill="url(#y)"/>
    <path d="M92.28 683.51c-.7 1.69-.73 3.28-.42 4.81-.24 5.01 1.51 11.7.73 15.12-.49.55-1.01 1.1-1.55 1.62-.2-5.02-1.45-9.97-4.95-13.87-3.16-3.52-8.65-3.94-11.56.2-4.07 5.8.44 16.76 6.91 21.03-1.98 1.25-3.92 2.21-6.07 3.15-.56-5.6-1.17-11.38-3.89-16.32-1.92-3.49-6.1-6.67-9.69-4.87-3.31 1.66-3.58 6.24-2.76 9.8 1.13 4.93 3.46 9.58 6.73 13.46a21.13 21.13 0 0 1-5.18 1.82c.38-5.78-.87-11.66-3.57-16.79-.82-1.56-1.83-3.11-3.36-4.02-3.13-1.85-7.56-.13-9.37 3.02-1.8 3.15-1.38 7.16.19 10.42s4.14 5.92 6.66 8.53l-4.63.92c-1.45-5.94-2.97-12.02-6.49-17.04-2.04-2.9-5.41-5.56-8.88-4.67-3.57.92-5.23 5.32-4.39 8.86.83 3.54 3.43 6.37 5.92 9.04-6.46-.13-11.85-7.17-18.12-5.6-.92.23-1.81.66-2.47 1.33-1.96 1.97-1.34 5.45.56 7.46 3.5 3.72 10.49 5.26 15.38 5.69 25.04 2.19 57.6-4.6 71.34-22.49 4.21-5.49 9.35-15.56 3.15-21.62-2.93-2.86-8.45-3.28-10.21 1z"
          fill="url(#z)"/>
    <path d="M104.96,663.28c0-.12-.03-.24-.06-.35-1.86-6.91-5.85-12.59-12.83-15.48-7.09-2.94-15.53-1.01-22.3-4.69-6.25-3.4-9.09-9.01-16.21-11.39-7.9-2.64-15.58-1.88-23.74-3.33-7.97-1.42-15.02-4.98-20.95-10.15-1.05-.91-2.68-.01-2.52,1.37,1.93,16.47,5.4,32.55,21.5,40.7,2.89,1.46,5.94,2.13,8.53,4.01,5.14,3.71,8.38,9.34,13.68,12.99,4.99,3.44,14.23,10.12,35.59,5.83,7.15-1.44,20.21-7.4,19.3-19.51Z"
          class="BY"/>
    <path d="M7.15 693.79c-1.26-.05-1.82-1.62-.92-2.49 6.21-5.99 13.16-13.6 21.21-15.76 8.64-2.32 16.78 4.26 25.2 1.68 16-4.89 30.03-13.03 45.25.12 16.64 14.37 6.03 30.8-9.73 38.21-16.37 7.7-25.95-4.64-41.04-6.51-8.38-1.04-13.62-1.93-21.19-6.96-8.04-5.34-13.38-8.09-18.79-8.3z"
          fill="url(#AA)"/>
    <path d="M124.87 696.85c-.24 0-.49-.09-.68-.27-.08-.07-8.11-7.48-33.64-10.04-10.8-1.09-16.27 1.09-21.1 3-6.11 2.43-11.39 4.52-24.45-.57-11.74-4.58-26.05.61-26.19.66-.49.19-1.07-.07-1.26-.58s.07-1.07.58-1.26c.61-.23 15.13-5.49 27.58-.65 12.35 4.81 17.06 2.94 23.02.58 5.03-2 10.73-4.26 22.02-3.13 26.34 2.64 34.47 10.26 34.8 10.58a.97.97 0 0 1 .02 1.38c-.19.2-.45.3-.71.3z"
          class="BZ"/>
    <path d="M38.44 739.96a2.11 2.11 0 0 1-.83-2.23c3.87-15.62 9.42-30.44 25.89-36.42 3.04-1.1 6.15-1.41 8.95-2.95 5.54-3.07 9.44-8.26 15.15-11.25 5.36-2.81 15.34-8.33 36.03-1.51 6.88 2.27 19 9.67 16.86 21.43l-.24.82c-2.7 6.52-7.31 11.58-14.5 13.59-7.39 2.07-15.54-.86-22.7 1.98-6.62 2.63-10.11 7.86-17.46 9.36-8.16 1.67-15.69 0-23.96.46-7.59.42-14.61 2.82-20.83 6.77-.73.46-1.66.46-2.36-.04h0z"
          fill="url(#AB)"/>
    <path d="M50.06 726.84a.95.95 0 0 1-.71-.31.98.98 0 0 1 .04-1.38c10.75-10.18 16.55-12.33 34.47-12.81 11.36-.31 16.79-4.91 22.04-9.37 4.33-3.67 8.41-7.14 15.33-8.09 15.06-2.06 20.88-.82 21.12-.77.53.12.86.64.74 1.17s-.63.86-1.16.74c-.06-.02-5.81-1.2-20.43.8-6.36.87-10.23 4.16-14.33 7.64-5.25 4.46-11.2 9.51-23.26 9.83-18.35.49-23.29 2.92-33.18 12.28a.97.97 0 0 1-.67.27zm60.11-51.36a.93.93 0 0 1-.57-.19c-13.2-9.61-21.64-9.97-29.09-10.29-6.91-.3-13.44-.58-21.96-8.28a140.13 140.13 0 0 1-3.6-3.41c-5.03-4.88-8.66-8.41-17.51-9.49-11.47-1.4-18.13-9.13-18.41-9.45a.97.97 0 0 1 .11-1.37.98.98 0 0 1 1.38.11c.06.08 6.48 7.47 17.16 8.78 9.5 1.16 13.53 5.07 18.64 10.03l3.55 3.36c8 7.23 13.9 7.49 20.73 7.78 7.72.33 16.47.71 30.15 10.66.44.32.53.93.22 1.37a.98.98 0 0 1-.79.4z"
          class="BZ"/>
    <path d="M206.29 630.05l4.69.76 56.35-32.53c5-2.89 12.57-3.2 16.91-.7l94.25 54.41 7.68.68v3.91c-.05 1.89-1.44 3.89-4.14 5.45l-56.9 32.85c-5 2.89-12.57 3.2-16.91.7l-99-57.16c-1.95-1.12-2.9-2.62-2.92-4.2v-4.18z"
          fill="url(#AC)"/>
    <path d="M209.22 634.93l99 57.16c4.33 2.5 11.9 2.19 16.91-.7l56.9-32.85c5-2.89 5.55-7.26 1.21-9.76l-99-57.16c-4.33-2.5-11.9-2.19-16.91.7l-56.9 32.85c-5 2.89-5.55 7.26-1.21 9.76z"
          fill="url(#AD)"/>
    <use xlink:href="#Bc" fill="url(#AE)"/>
    <g class="BZ">
        <use xlink:href="#Bc" x="-7.69" y="-4.44"/>
        <use xlink:href="#Bd"/>
        <path d="M265.43 648.41l50.2 30.03c1.25.72 3.45.63 4.9-.2l3.05-1.76c1.45-.84 1.61-2.1.35-2.83l-50.2-30.03c-1.25-.72-3.45-.63-4.9.2l-3.05 1.76c-1.45.84-1.61 2.1-.35 2.83zm72.11 4.54l12.55 7.24c1.26.72 3.45.63 4.9-.2l9.19-5.56c1.45-.84 1.61-2.1.35-2.83l-12.55-7.24c-1.25-.72-3.45-.63-4.9.2l-9.19 5.56c-1.45.84-1.61 2.1-.35 2.83z"/>
        <use xlink:href="#Bd" x="-21.02" y="-11.99"/>
        <use xlink:href="#Bd" x="-41.12" y="-23.68"/>
        <use xlink:href="#Bd" x="-61.42" y="-35.42"/>
    </g>
    <path d="M329.08 642.11a1.04 1.04 0 0 0 .43.12c.41.03.79-.13.85-.37.27-1.12 1.13-2.13 2.5-2.92 1.4-.81 3.2-1.31 5.21-1.45.41-.03.71-.25.66-.49s-.43-.41-.84-.38c-2.35.17-4.45.75-6.09 1.7-1.6.92-2.61 2.1-2.92 3.41-.04.14.05.28.21.37z"
          fill="url(#AF)"/>
    <path d="M331.51 642.36c.11.07.27.11.44.12.41.03.79-.14.84-.38.19-.85.83-1.62 1.86-2.21s2.35-.96 3.83-1.07c.41-.03.71-.25.65-.49-.05-.24-.42-.41-.84-.38-1.81.13-3.44.59-4.71 1.32s-2.06 1.67-2.29 2.72c-.03.14.06.27.21.36z"
          fill="url(#AG)"/>
    <path d="M333.99 642.49a.99.99 0 0 0 .41.12c.41.04.8-.12.87-.36.15-.51.56-.97 1.18-1.33.67-.39 1.52-.62 2.48-.69.41-.03.71-.25.65-.49-.05-.24-.42-.41-.84-.38-1.29.09-2.45.42-3.36.94-.85.49-1.4 1.11-1.6 1.8-.04.15.04.28.21.38z"
          fill="url(#AH)"/>
    <path d="M336.13 642.88c.07.04.16.07.26.08.26.03.46-.48 1.43-.92.56-.26.97-.4 1.57-.44.26-.02.31-.3.28-.45s-.27-.26-.53-.24c-.82.06-1.55.26-2.13.6-.54.31-.89.7-1.01 1.14-.03.09.03.18.13.24z"
          fill="url(#AI)"/>
    <path d="M104.25 761.58c22.25 12.85 58.3 12.85 80.54 0 15.93-9.2 19.25-20.99 13.57-33.99-.5-1.15-3.03-8.55-3.87-9.59.2 7.77-3.19 21.98-13.46 27.92-20.16 11.64-52.85 11.64-73.01 0-10.27-5.94-13.94-20.15-13.74-27.92-1.23 1.52-3.7 9.46-4.42 11.09-4.99 11.31-.84 23.69 14.4 32.49z"
          fill="url(#AJ)"/>
    <path d="M92.92,724.41c-.2,7.77,4.83,15.57,15.1,21.51,20.16,11.64,52.85,11.64,73.01,0,10.27-5.94,15.31-13.74,15.1-21.51-.18-7.49-5.21-14.94-15.1-20.64-20.16-11.64-52.85-11.64-73.01,0-9.89,5.71-14.92,13.16-15.1,20.64Z"
          fill="url(#AK)"/>
    <path d="M107.3 707.42c12.42 0 26.06-4.09 40.09-12.19 47.52-27.44 86.18-94.4 86.18-149.28 0-30.41-14.13-52.23-38.76-59.86-3.02-.93-1.09 3.18-2.02 6.2s-4.38 3.8-1.37 4.73c19.8 6.13 30.7 23.51 30.7 48.93 0 51.23-36.1 113.75-80.46 139.37-20.41 11.79-39.31 13.86-53.2 5.84-2.74-1.58-4.09 1.14-5.67 3.87-1.58 2.74-2.79 4.45-.05 6.03 7.35 4.24 15.64 6.35 24.55 6.35z"
          fill="url(#AL)"/>
    <path d="M80.68 709.26a3.82 3.82 0 0 0 3.38-2.04l10.11-19.16c.98-1.86.27-4.17-1.59-5.15s-4.17-.27-5.15 1.59l-10.11 19.16c-.98 1.86-.27 4.17 1.59 5.15a3.8 3.8 0 0 0 1.77.44z"
          fill="url(#AM)"/>
    <path d="M186.92 507.4c1.38 0 2.71-.75 3.39-2.06l10.28-19.81c.97-1.87.24-4.17-1.63-5.14s-4.17-.24-5.14 1.63l-10.28 19.81c-.97 1.87-.24 4.17 1.63 5.14a3.8 3.8 0 0 0 1.75.43z"
          fill="url(#AN)"/>
    <path d="M144.52,728.84c3.18,0,5.75-1.91,5.75-4v-34.56c0-3.86-2.58-6.99-5.75-6.99s-5.75,3.13-5.75,6.99v34.56c0,2.09,2.58,4,5.75,4Z"
          fill="url(#AO)"/>
    <path d="M59.62 543.47c10.19-9.18 21.77-16.82 34.21-22.58l6.93 3.34c-1.69 5.73 1.12 11.83 4.6 16.7 2.68 3.75 6.15 7.4 10.69 8.25 5.96 1.12 11.57-2.82 16.33-6.56l19.91-15.56c1.82-1.42 3.75-2.9 6.04-3.28 4.96-.81 9.15 3.65 14.03 4.77 5.57 1.27 11.33-1.92 16.96-1.07 6.22.93 10.56 6.34 14.89 10.89 1.22 1.28 3.15 2.61 4.59 1.56.56-.41.85-1.09 1.12-1.74l5.03-12.27c-19.07-21.29-46.78-34.69-77.62-34.69a103.69 103.69 0 0 0-69.91 26.95c3.14 5.31 1.67 13.08-3.5 16.6-1.67 1.14-3.66 1.92-4.92 3.5-1.27 1.58-1.26 4.44.62 5.17z"
          fill="url(#AP)"/>
    <path d="M33.11 595.48c0 57.56 46.66 104.22 104.22 104.22a103.8 103.8 0 0 0 69.99-27c-.18-3.81 2.47-9.61 5.12-11.53 3.05-2.19 6.7-3.79 8.78-6.9 1.58-2.34 2.05-5.25 3.42-7.7 1.39-2.48 3.7-4.39 6.36-5.36 6.75-13.8 10.54-29.33 10.54-45.72a103.72 103.72 0 0 0-26.59-69.53l-5.03 12.27c-.27.65-.56 1.33-1.12 1.74-1.44 1.04-3.37-.28-4.59-1.56-4.32-4.55-8.67-9.97-14.89-10.89-5.63-.85-11.39 2.34-16.96 1.07-4.88-1.12-9.08-5.58-14.03-4.77-2.29.38-4.22 1.86-6.04 3.28l-19.91 15.56c-4.77 3.74-10.37 7.68-16.33 6.56-4.54-.85-8.01-4.5-10.69-8.25-3.48-4.87-6.29-10.97-4.6-16.7l-6.93-3.34c-12.43 5.76-24.01 13.4-34.21 22.58-1.88-.74-1.89-3.6-.62-5.17 1.26-1.58 3.25-2.35 4.92-3.5 5.16-3.52 6.64-11.29 3.5-16.6-21.08 19.05-34.31 46.63-34.31 77.27z"
          fill="url(#AQ)"/>
    <path d="M226.08 571.49c1.13 4.76.73 9.74.31 14.61-.73 8.58-2.06 18.27-9.06 23.28-3.99 2.86-9.61 3.52-13.92 1.18-3.33-1.81-5.59-5.11-8.71-7.27-5.23-3.63-12.99-3.37-17.63.99-1.9 1.79-3.23 4.11-5.04 6-3.23 3.35-7.87 5.19-10.74 8.85-3.8 4.86-3.6 11.65-5.69 17.46-2.68 7.48-9.01 12.97-15.08 18.11-3.9 3.3-8.44 6.8-13.51 6.21-5.19-.6-8.83-5.23-11.86-9.48-2.3-3.23-4.64-6.52-6-10.24-1.36-3.73-1.66-8.02.08-11.59.72-1.48 1.8-2.86 1.96-4.49.63-6.33-11.81-8.22-8.4-15.91.63-1.43 1.68-2.64 2.91-3.6 5.94-4.64 6.6-12.85 4.84-19.81-1.55-6.11-4.69-11.67-6.9-17.57-1.69-4.52-2.82-9.49-2.21-14.2.19-1.42 2.01-2 2.95-.91 3.19 3.72 9.07 5.17 14.14 4.36 6.37-1.01 12.01-4.54 18.02-6.88 6.57-2.56 14.52-4.37 16.57-11.79a7.09 7.09 0 0 1 1.85-3.16c2.58-2.51 4.78-.98 6.71.32 12.6 8.46 25.19 7.24 39.11 10.46 10.99 2.55 22.71 14.23 25.3 25.08z"
          fill="url(#AR)"/>
    <path d="M87.95 622.14c-.28.46-.64.98-1.18 1.02-.68.05-1.14-.67-1.41-1.31-1.35-3.26-3.5-13.65 2.81-13.94 7.18-.33 1.39 11.59-.22 14.23z"
          fill="url(#AS)"/>
    <path d="M212.44 661.17c3.05-2.19 6.7-3.79 8.78-6.9 1.58-2.34 2.05-5.25 3.42-7.7 1.39-2.48 3.7-4.39 6.36-5.36-1.86 3.79-3.93 7.44-6.2 10.94h0c-3.36 5.16-7.14 10-11.33 14.48a106.9 106.9 0 0 1-6.15 6.08c-.18-3.81 2.47-9.61 5.12-11.53z"
          fill="url(#AT)"/>
    <g class="Bb BZ">
        <path d="M135.31 668.18a1.31 1.31 0 0 1-1.27-1 1.3 1.3 0 0 1 .96-1.57 17.3 17.3 0 0 0 8.21-4.56 1.3 1.3 0 1 1 1.83 1.85c-2.65 2.61-5.82 4.38-9.43 5.24-.1.03-.2.04-.31.04zm-10.12-.05a1.1 1.1 0 0 1-.31-.04c-3.53-.87-6.73-2.56-9.5-5.02a1.3 1.3 0 1 1 1.73-1.95c2.45 2.18 5.28 3.67 8.4 4.44.7.17 1.13.88.95 1.58a1.31 1.31 0 0 1-1.26.99zm-14.9-12.95a1.3 1.3 0 0 1-1.19-.77c-1.44-3.25-2.24-6.75-2.36-10.39-.03-.72.54-1.32 1.26-1.35.7 0 1.32.54 1.35 1.26.11 3.31.84 6.48 2.14 9.43.29.66 0 1.43-.66 1.72a1.23 1.23 0 0 1-.53.11zm39.19-.52a1.35 1.35 0 0 1-.44-.07c-.68-.24-1.03-.99-.79-1.67 1.05-2.96 1.58-6.19 1.58-9.6 0-.72.58-1.38 1.3-1.38s1.3.51 1.3 1.23v.16c0 3.71-.58 7.23-1.73 10.47a1.31 1.31 0 0 1-1.23.87zm-39.81-19.41c-.16 0-.32-.03-.47-.09-.67-.26-1-1.02-.74-1.69 1.35-3.47 3.4-6.45 6.09-8.85a1.3 1.3 0 1 1 1.73 1.95c-2.38 2.12-4.2 4.76-5.39 7.84-.2.52-.69.83-1.22.83zm39.7-.8c-.52 0-1.02-.32-1.22-.84-1.21-3.17-3.01-5.8-5.35-7.82-.54-.47-.61-1.3-.14-1.84a1.32 1.32 0 0 1 1.84-.14c2.67 2.31 4.72 5.29 6.08 8.87.26.67-.08 1.43-.75 1.68-.15.06-.31.09-.46.09zm-25-12.26a1.3 1.3 0 0 1-1.26-.98c-.18-.7.24-1.41.94-1.59 3.41-.87 7.28-1.01 10.69-.4.71.13 1.18.81 1.05 1.52s-.81 1.16-1.52 1.05c-3.04-.55-6.53-.42-9.59.36a1.22 1.22 0 0 1-.32.04z"/>
    </g>
    <path d="M141.35 611.47l-.78-2.12-3.24-1.87c-2.15-1.47-5.24-1.39-8.68.6-6.5 3.75-11.77 12.88-11.77 20.38 0 2.33.51 4.23 1.4 5.63-.01 0 10.34 13.59 10.34 13.59l3.54 2.07.44-5.37-2.79.36 8.31-20.5c1.44-3.08 2.28-6.35 2.28-9.36 0-1.51-.22-2.84-.61-3.97l1.54.57zm-12.7 16.1c-3.22 1.86-5.83.35-5.83-3.36s2.61-8.24 5.83-10.09c3.22-1.86 5.83-.35 5.83 3.36s-2.61 8.24-5.83 10.09z"
          class="BY"/>
    <path d="M132.19 610.15c-6.5 3.75-11.77 12.88-11.77 20.38 0 2.33.51 4.23 1.4 5.63-.01 0 10.34 13.59 10.34 13.59l9.5-23.44c1.44-3.08 2.28-6.35 2.28-9.36 0-7.5-5.27-10.54-11.77-6.79zm0 19.5c-3.22 1.86-5.83.35-5.83-3.36s2.61-8.24 5.83-10.09c3.22-1.86 5.83-.35 5.83 3.36s-2.61 8.24-5.83 10.09z"
          fill="#f9dd9a"/>
    <g class="Bb BZ">
        <path d="M132.42 696.61h-1.3c-.72-.03-1.29-.62-1.28-1.34s.59-1.26 1.33-1.28h1.21s.03.01.05.01c3.09 0 6.15-.23 9.1-.7.71-.11 1.38.37 1.49 1.08a1.3 1.3 0 0 1-1.09 1.49c-3.08.48-6.27.73-9.5.73zm-11.83-1.1c-.08 0-.16 0-.24-.02-3.55-.67-7.06-1.65-10.43-2.91a1.31 1.31 0 0 1-.77-1.68 1.31 1.31 0 0 1 1.68-.77c3.23 1.21 6.6 2.15 10 2.79a1.3 1.3 0 0 1 1.04 1.52c-.12.63-.66 1.06-1.28 1.06zm31.39-2.26a1.3 1.3 0 0 1-1.22-.86c-.25-.67.1-1.42.78-1.67 3.25-1.18 6.38-2.7 9.3-4.5a1.31 1.31 0 0 1 1.79.42c.38.61.19 1.42-.43 1.8-3.08 1.89-6.37 3.49-9.78 4.73-.15.05-.3.08-.45.08zm-51.2-5.13c-.22 0-.45-.06-.65-.18-3.11-1.81-6.1-3.91-8.86-6.22-.55-.46-.63-1.29-.16-1.84a1.31 1.31 0 0 1 1.84-.16c2.66 2.22 5.51 4.23 8.5 5.97.62.36.83 1.16.47 1.78-.24.42-.68.65-1.13.65zm69.16-5.92c-.35 0-.7-.14-.95-.41a1.3 1.3 0 0 1 .06-1.84 54.8 54.8 0 0 0 6.85-7.77c.42-.58 1.23-.71 1.82-.29a1.31 1.31 0 0 1 .29 1.82c-2.15 2.95-4.56 5.69-7.17 8.14-.25.23-.57.35-.89.35zm-85.37-7.66a1.29 1.29 0 0 1-.99-.46c-2.34-2.76-4.45-5.73-6.28-8.82-.37-.62-.16-1.42.46-1.78s1.42-.16 1.78.46c1.75 2.97 3.78 5.82 6.02 8.46.47.55.4 1.37-.15 1.84-.24.21-.54.31-.84.31zm97.82-9.4c-.19 0-.39-.04-.57-.13a1.29 1.29 0 0 1-.6-1.74 64.21 64.21 0 0 0 3.76-9.69 1.31 1.31 0 0 1 1.62-.88 1.31 1.31 0 0 1 .88 1.62c-1.05 3.5-2.36 6.89-3.92 10.08a1.31 1.31 0 0 1-1.17.73zm-108.55-8.8c-.53 0-1.02-.32-1.22-.84-1.27-3.38-2.26-6.88-2.93-10.43a1.3 1.3 0 0 1 1.04-1.52c.71-.12 1.39.33 1.52 1.04.64 3.4 1.59 6.76 2.8 9.99a1.31 1.31 0 0 1-.76 1.68 1.24 1.24 0 0 1-.46.08zm114.65-11.45c-.06 0-.12 0-.18-.01-.71-.1-1.21-.76-1.11-1.47.48-3.4.72-6.9.72-10.4v-.28a1.3 1.3 0 1 1 2.6 0v.28a76.81 76.81 0 0 1-.75 10.77c-.09.65-.65 1.12-1.29 1.12zm-118.58-9.31a1.3 1.3 0 0 1-1.3-1.29v-.89c0-3.33.26-6.66.78-9.91.11-.71.77-1.19 1.49-1.08.71.11 1.2.78 1.08 1.49-.5 3.11-.75 6.31-.75 9.5v.86c.02.72-.56 1.31-1.28 1.32h-.02zm118.53-12.14a1.31 1.31 0 0 1-1.29-1.11c-.51-3.48-1.29-6.9-2.3-10.15a1.3 1.3 0 0 1 .86-1.63 1.29 1.29 0 0 1 1.63.86c1.05 3.38 1.86 6.93 2.39 10.54.11.71-.39 1.37-1.1 1.48-.06 0-.13.01-.19.01zm-115.17-8.72a1.29 1.29 0 0 1-.43-.07 1.3 1.3 0 0 1-.8-1.66 62.59 62.59 0 0 1 4.45-9.88 1.3 1.3 0 1 1 2.28 1.27 59.55 59.55 0 0 0-4.27 9.46c-.19.54-.69.88-1.23.88zm108.84-11.45c-.47 0-.93-.26-1.16-.71a55.92 55.92 0 0 0-5.54-8.76c-.44-.57-.34-1.39.23-1.83s1.39-.34 1.83.23a58.39 58.39 0 0 1 5.8 9.16 1.3 1.3 0 0 1-.57 1.75 1.25 1.25 0 0 1-.59.14zm-98.5-6.97c-.29 0-.58-.1-.82-.3-.56-.46-.64-1.28-.18-1.83 2.28-2.79 4.83-5.4 7.56-7.76.54-.47 1.37-.41 1.84.14a1.3 1.3 0 0 1-.14 1.84c-2.62 2.26-5.06 4.76-7.25 7.43-.26.32-.63.48-1.01.48zm85.55-9.7c-.3 0-.61-.11-.85-.32a50.61 50.61 0 0 0-8.45-5.94 1.3 1.3 0 0 1-.5-1.77c.35-.63 1.14-.85 1.77-.5 3.16 1.77 6.15 3.87 8.89 6.25a1.31 1.31 0 0 1 .13 1.84 1.29 1.29 0 0 1-.98.45zm-69.56-4.12a1.33 1.33 0 0 1-1.12-.63c-.37-.62-.17-1.42.45-1.79 3.09-1.85 6.35-3.46 9.72-4.77.67-.26 1.43.07 1.69.74s-.07 1.43-.74 1.69c-3.23 1.26-6.36 2.8-9.32 4.58-.21.13-.44.19-.67.19zm51.17-6.21c-.13 0-.27-.02-.4-.06-3.23-1.04-6.63-1.8-10.11-2.24-.71-.09-1.22-.74-1.13-1.46.09-.71.76-1.21 1.46-1.13a58.72 58.72 0 0 1 10.59 2.34 1.31 1.31 0 0 1 .84 1.64c-.18.55-.69.9-1.24.9zm-31.48-1.47c-.61 0-1.15-.42-1.28-1.04-.14-.71.31-1.4 1.01-1.54a66.48 66.48 0 0 1 10.74-1.3c.73-.08 1.33.53 1.35 1.25.03.72-.53 1.33-1.25 1.35a62.57 62.57 0 0 0-10.32 1.25 1.22 1.22 0 0 1-.26.03z"/>
    </g>
    <g class="Bb BZ">
        <path d="M131.01 682.69a44.52 44.52 0 0 1-6.12-.42c-.71-.1-1.21-.76-1.11-1.47s.74-1.21 1.47-1.11a42.05 42.05 0 0 0 9.9.18 1.31 1.31 0 0 1 1.43 1.16 1.31 1.31 0 0 1-1.16 1.43c-1.44.15-2.93.22-4.4.22zm14.19-2.6a1.29 1.29 0 0 1-1.21-.83c-.26-.67.07-1.43.74-1.69a34.9 34.9 0 0 0 8.55-4.84c.57-.44 1.39-.33 1.83.23.44.57.33 1.39-.24 1.83-2.81 2.17-5.9 3.92-9.2 5.21-.16.06-.32.09-.47.09zm-30.01-.41a1.36 1.36 0 0 1-.48-.09c-3.27-1.29-6.38-2.98-9.25-5.02a1.3 1.3 0 0 1-.31-1.82 1.31 1.31 0 0 1 1.82-.31 41.76 41.76 0 0 0 8.71 4.73c.67.26 1 1.02.73 1.69-.2.51-.69.82-1.21.82zm-16.56-11.72a1.29 1.29 0 0 1-.98-.45 45.1 45.1 0 0 1-5.96-8.67c-.34-.64-.09-1.42.55-1.76.64-.33 1.43-.09 1.76.55 1.54 2.92 3.43 5.67 5.61 8.17a1.31 1.31 0 0 1-.12 1.84c-.25.22-.55.32-.86.32zm62.61-.17c-.27 0-.55-.08-.78-.26-.58-.43-.69-1.25-.26-1.83 1.95-2.59 3.62-5.48 4.95-8.59.29-.66 1.05-.97 1.71-.68.66.28.97 1.05.68 1.71-1.41 3.29-3.18 6.36-5.26 9.13a1.31 1.31 0 0 1-1.04.52zm-72.06-17.78a1.3 1.3 0 0 1-1.26-.98c-.86-3.39-1.32-6.9-1.37-10.43-.01-.72.57-1.31 1.29-1.32.69-.04 1.31.57 1.32 1.29a42.67 42.67 0 0 0 1.29 9.83c.18.7-.25 1.41-.94 1.58a1.22 1.22 0 0 1-.32.04zm80.16-.85c-.08 0-.17 0-.25-.02a1.3 1.3 0 0 1-1.03-1.53c.63-3.21.94-6.55.94-9.93 0-.72.58-1.4 1.3-1.4s1.3.49 1.3 1.21v.19c0 3.54-.33 7.05-.99 10.43-.12.62-.67 1.05-1.28 1.05zm-80.43-19.44a1.43 1.43 0 0 1-.29-.03 1.32 1.32 0 0 1-.99-1.56c.78-3.44 1.96-6.77 3.53-9.92a1.3 1.3 0 1 1 2.33 1.17 41.3 41.3 0 0 0-3.32 9.33 1.3 1.3 0 0 1-1.27 1.02zm80.38-1.1c-.61 0-1.15-.43-1.28-1.04a44.66 44.66 0 0 0-3.02-9.46c-.3-.66 0-1.43.65-1.72a1.3 1.3 0 0 1 1.72.65c1.41 3.13 2.48 6.49 3.2 10.01.14.71-.31 1.4-1.02 1.54a1.22 1.22 0 0 1-.26.03zm-71.34-17.06c-.3 0-.6-.1-.84-.31-.55-.47-.62-1.29-.15-1.84 2.27-2.68 4.86-5.09 7.7-7.17.59-.42 1.4-.29 1.82.29a1.3 1.3 0 0 1-.28 1.82 41.78 41.78 0 0 0-7.25 6.75c-.26.3-.63.46-1 .46zm62.92-1.4c-.38 0-.76-.17-1.02-.49-2.08-2.59-4.49-4.87-7.15-6.75a1.3 1.3 0 0 1-.31-1.82c.41-.59 1.23-.72 1.82-.31 2.86 2.03 5.44 4.47 7.68 7.25.45.56.36 1.38-.2 1.83-.24.19-.53.29-.81.29zm-46.54-10.56a1.29 1.29 0 0 1-1.2-.8 1.29 1.29 0 0 1 .71-1.7c3.24-1.34 6.65-2.3 10.13-2.84a1.31 1.31 0 0 1 1.49 1.09 1.31 1.31 0 0 1-1.09 1.49 41.86 41.86 0 0 0-9.54 2.67 1.24 1.24 0 0 1-.5.1zm30.04-1.12a1.29 1.29 0 0 1-.43-.07c-3.05-1.06-6.3-1.72-9.67-1.98a1.3 1.3 0 0 1-1.2-1.4 1.29 1.29 0 0 1 1.4-1.2c3.59.27 7.07.99 10.33 2.12a1.3 1.3 0 0 1 .8 1.66c-.19.54-.69.88-1.23.88z"/>
    </g>
    <path d="M198.69,553.33l82.36-52.22c3.66-2.32,7.09-2.67,9.82-1.37,.4,.19,.77,.41,1.12,.65l4.97,2.89h-2.31c1.35,2.21,2.2,5.2,2.35,8.87l8.18,197.44c.47,11.39-5.9,24.91-14.24,30.2l-82.36,52.22c-1.51,.96-2.99,1.58-4.39,1.89l-.66,2.29-4.75-2.8c-.42-.2-.81-.43-1.2-.71-2.85-2.03-4.72-6.09-4.95-11.72l-8.18-197.44c-.47-11.39,5.9-24.91,14.24-30.2Z"
          fill="url(#AU)"/>
    <path d="M213.63,794.96l82.36-52.22c8.34-5.29,14.72-18.81,14.24-30.2l-8.18-197.44c-.47-11.39-7.61-16.34-15.95-11.05l-82.36,52.22c-8.34,5.29-14.72,18.8-14.24,30.2l8.18,197.44c.47,11.39,7.61,16.34,15.95,11.05Z"
          fill="url(#AV)"/>
    <path d="M208.67 559.4l9.86-6.25.13 3.24c.18 4.36 3.15 4.19 6.73 1.92l40.32-25.56c3.58-2.27 6.41-5.77 6.23-10.13l-.13-3.24 9.86-6.25c8.23-5.22 15.25-1.32 15.66 8.71l7.32 175.45c.42 10.03-5.92 22.39-14.16 27.61l-73 46.28c-8.23 5.22-15.25 1.32-15.66-8.71l-7.32-175.45c-.42-10.03 5.92-22.39 14.16-27.61z"
          fill="url(#AW)"/>
    <path d="M245.71 538.91l18.96-11.99c.56-.35.99-1.26.96-2.02s-.51-1.1-1.07-.74l-18.96 11.99c-.56.35-.99 1.26-.96 2.02s.51 1.1 1.07.74z"
          fill="url(#AX)"/>
    <path d="M237.24 543.03c.16 1.1.99 1.44 1.87.75s1.46-2.14 1.3-3.24-.99-1.44-1.87-.75-1.46 2.14-1.3 3.24z"
          fill="url(#AY)"/>
    <path d="M231.33 546.67c.16 1.1.99 1.44 1.87.75s1.46-2.14 1.3-3.24-.99-1.44-1.87-.75-1.46 2.14-1.3 3.24z"
          fill="url(#AZ)"/>
    <path d="M202.84 633.76c-.06-2 4.11-3.93 7.87-5.23l15.07-5.38c.79-.28 1.46.25 1.51 1.18l.4 8.67c.04.93-.56 1.92-1.35 2.2l-18.79 6.71c-.79.28-1.46-.25-1.51-1.18l-.2-4.44c-1.02-.38-1.94-.91-2.61-1.66-.25-.28-.37-.57-.38-.87z"
          fill="url(#Aa)"/>
    <path d="M203.67 634.17c-.06-2 4.11-3.93 7.87-5.23l15.07-5.38c.79-.28 1.46.25 1.51 1.18l.4 8.67c.04.93-.56 1.92-1.35 2.2l-18.79 6.71c-.79.28-1.46-.25-1.51-1.18l-.2-4.44c-1.02-.38-1.94-.91-2.61-1.66-.25-.28-.37-.57-.38-.87z"
          fill="url(#Ab)"/>
    <path d="M223.14,657.44l61.88-19.11c3.46-1.07,6.19-4.64,6.1-7.97l-1.22-42.93c-.09-3.33-2.98-5.17-6.44-4.1l-61.88,19.11c-3.46,1.07-6.2,4.64-6.1,7.97l1.22,42.93c.09,3.33,2.98,5.17,6.44,4.1Z"
          fill="url(#Ac)"/>
    <path d="M224.43,658.34l61.88-19.11c3.46-1.07,6.19-4.64,6.1-7.97l-1.22-42.93c-.09-3.33-2.98-5.17-6.44-4.1l-61.88,19.11c-3.46,1.07-6.19,4.64-6.1,7.97l1.22,42.93c.09,3.33,2.98,5.17,6.44,4.1Z"
          fill="url(#Ad)"/>
    <path d="M240.56 624.15c1.38-.31 2.8.14 3.83 1.12 1.75 1.66 5.13 3.8 10.2 2.45 6.4-1.7 8.92-5.2 9.91-7.52.65-1.53 1.98-2.67 3.58-3.14l12.69-3.68a2.94 2.94 0 0 1 3.76 2.74l.36 12.59c.08 2.78-2.2 5.77-5.1 6.66l-51.69 15.96c-2.89.89-5.3-.64-5.38-3.42l-.49-17.25c-.04-1.41.93-2.65 2.3-2.96l16.02-3.55z"
          fill="url(#Ae)"/>
    <path d="M222.23 630.66c-.04-1.41.93-2.65 2.3-2.96l16.02-3.55c.45-.1.91-.09 1.35-.04l-16.01 3.54c-1.38.31-2.35 1.55-2.31 2.96l.49 17.26c.06 2.05 1.38 3.41 3.22 3.63-2.52.4-4.51-1.07-4.58-3.59l-.49-17.25z"
          fill="url(#Af)"/>
    <path d="M282.13 613.34l-12.69 3.68c-1.6.46-2.93 1.6-3.58 3.14-.99 2.32-3.51 5.82-9.91 7.52-1.28.34-2.45.46-3.51.42.68-.06 1.4-.17 2.15-.38 6.4-1.7 8.92-5.2 9.91-7.52.65-1.53 1.98-2.67 3.58-3.14l12.69-3.68a2.86 2.86 0 0 1 1.42-.05h-.06z"
          fill="url(#Ag)"/>
    <path d="M204.26 634.23c1.76 1.96 5.21 2.44 7.75 2.52h1.35c.99-.03 1.82.76 1.85 1.76l.26 8.48c.03 1.02-1.46 2.21-2.49 2.24-2.52.05-6.27-.57-8.36-2.87-.25-.28-.37-.57-.38-.87l-1.39-11.24c-.07-.54.02-.84.02-.84l1-.03c0 .3.13.6.38.87z"
          fill="url(#Ah)"/>
    <path d="M203.22 634.64c1.76 1.96 5.21 2.44 7.75 2.52h1.35c.99-.03 1.82.76 1.85 1.76l.26 8.48c.03 1.02-.77 1.85-1.8 1.88-2.52.05-6.96-.21-9.04-2.52-.25-.28-.37-.57-.38-.87l-.37-12.12c0 .3.13.6.38.87z"
          fill="url(#Ai)"/>
    <path d="M241.49 638.99c0 .47.16.81.42 1.02 0 .02 6.03 3.26 6.03 3.26l5.16-14.53.15-.08.97-50.04-12.16-6.78c-.35.59-.57 1.22-.57 1.78v65.37z"
          fill="url(#Aj)"/>
    <path d="M265.88 621.36c1.18-.68 2.14-2.2 2.14-3.38v-53.14l9.91-7.31-5.58-2.98c-.39-.31-1.03-.31-1.76.11l-26.97 15.58c-.62.36-1.18.95-1.57 1.6l12.16 6.78-.97 50.04 12.64-7.3z"
          fill="url(#Ak)"/>
    <path d="M247.35 576.78v65.37c.01 1.18.97 1.59 2.16.9l26.97-15.58c1.18-.68 2.14-2.2 2.14-3.38v-65.38c-.01-1.18-.97-1.59-2.16-.9l-26.97 15.58c-1.18.68-2.14 2.2-2.14 3.38z"
          fill="url(#Al)"/>
    <path d="M253.19 580.75v4.43c0 .55.45.74 1 .42l1.23-.71c.55-.32 1-1.03 1-1.58v-4.43c0-.55-.45-.74-1-.42l-1.22.71c-.55.32-1 1.03-1 1.58z"
          fill="url(#Am)"/>
    <path d="M276.11 564.98c0-1.94-1.37-2.73-3.05-1.76l-2.09 1.21-15.28 8.83-.7.4-2.09 1.21c-1.68.97-3.05 3.34-3.05 5.28v1.89l.02-.05-.02.57v47.24l.01 3.69v2.41c0 1.94 1.37 2.73 3.05 1.76l2.09-1.21 15.98-9.23 2.09-1.21c1.68-.97 3.05-3.34 3.05-5.28v-2.41-.98-49.69l-.01-.26v-2.41zm-25 17.97c0-3.09 2.17-6.86 4.85-8.41l14.05-8.12c2.68-1.55 4.85-.29 4.85 2.8v48.71c.01 3.09-2.16 6.86-4.84 8.4l-14.05 8.12c-2.68 1.55-4.85.29-4.85-2.8v-48.71z"
          fill="url(#An)"/>
    <path d="M262.98 591.96c-4.66 2.69-8.44 8.73-8.44 13.48s3.78 6.42 8.44 3.73 8.44-8.73 8.44-13.48-3.78-6.42-8.44-3.73z"
          fill="url(#Ao)"/>
    <path d="M269.45 617.62v4.43c0 .55.45.74 1 .42l1.23-.71c.55-.32 1-1.03 1-1.58v-4.43c0-.55-.45-.74-1-.42l-1.23.71c-.55.32-1 1.03-1 1.58z"
          fill="url(#Ap)"/>
    <path d="M245.53 573.59c.07-.12.2-.2.35-.2.23 0 .41.18.41.41v63.55c.02.23-.17.41-.39.41-.23 0-.41-.18-.41-.41V573.8c-.01-.07 0-.14.04-.2z"
          fill="url(#Aq)"/>
    <path d="M243.03 572.47c.07-.12.2-.2.35-.2.23 0 .41.18.41.41v63.55c.02.23-.17.41-.39.41-.23 0-.41-.18-.41-.41v-63.55c-.01-.07 0-.14.04-.2z"
          fill="url(#Ar)"/>
    <path d="M244.52 573.42a.36.36 0 0 1 .15-.15l24.78-14.32a.41.41 0 0 1 .56.15.4.4 0 0 1-.15.56l-24.78 14.32a.41.41 0 0 1-.56-.15c-.08-.13-.07-.29 0-.41z"
          fill="url(#As)"/>
    <path d="M235.3,680.06l51.48-31.87c2.88-1.78,5.12-6.4,5-10.31l-1.55-50.39c-.12-3.91-2.55-5.64-5.44-3.85l-51.48,31.87c-2.88,1.78-5.12,6.4-5,10.31l1.55,50.39c.12,3.91,2.55,5.64,5.44,3.85Z"
          fill="url(#At)"/>
    <path d="M236.86,680.8l51.48-31.87c2.88-1.78,5.12-6.4,5-10.31l-1.55-50.39c-.12-3.91-2.55-5.64-5.44-3.85l-51.48,31.87c-2.88,1.78-5.12,6.4-5,10.31l1.55,50.39c.12,3.91,2.55,5.64,5.44,3.85Z"
          fill="url(#Au)"/>
    <path d="M237.54 664.61c-.61 0-1.11-.38-1.13-.86l-.27-6.78c-.02-.49.47-.9 1.1-.91.58.02 1.15.37 1.17.86l.27 6.78c.02.49-.47.9-1.1.91h-.04zm19.19-1.71c-.38 0-.75-.19-.97-.54-.33-.53-.17-1.23.37-1.56l7.4-4.58c.53-.33 1.23-.17 1.56.37.33.53.17 1.23-.37 1.56l-7.4 4.58c-.19.12-.39.17-.6.17zm14.81-9.17c-.38 0-.75-.19-.97-.54-.33-.53-.17-1.23.37-1.56l7.4-4.58c.53-.33 1.23-.17 1.56.37.33.53.17 1.23-.37 1.56l-7.4 4.58c-.19.12-.39.17-.6.17zM237 648.31c-.61 0-1.12-.43-1.14-.97l-.27-7.67c-.02-.55.47-1.01 1.1-1.03.61.03 1.15.42 1.17.97l.27 7.67c.02.55-.47 1.01-1.1 1.03h-.04zm48.53-4.63c-.18 0-.37-.04-.54-.14a1.14 1.14 0 0 1-.46-1.54c.75-1.39 1.18-2.99 1.18-4.38l-.11-3.53a1.13 1.13 0 0 1 1.1-1.17c.59.03 1.15.47 1.17 1.1l.11 3.6c0 1.78-.51 3.73-1.45 5.46-.2.38-.6.6-1 .6zm-45.64 26.99c-.09-.16-.15-.34-.16-.53a1.13 1.13 0 0 1 1.08-1.19c1.58-.08 3.17-.54 4.36-1.27l2.96-1.92a1.14 1.14 0 0 1 1.57.33c.28.52.19 1.23-.33 1.57l-3.02 1.96c-1.52.93-3.45 1.49-5.42 1.6-.43.02-.82-.2-1.03-.55zm-3.42-38.46c-.61 0-1.11-.49-1.13-1.1l-.1-3.56c0-1.8.52-3.75 1.47-5.49.3-.55.99-.75 1.54-.46a1.14 1.14 0 0 1 .46 1.54c-.76 1.4-1.19 3.01-1.19 4.41l.1 3.49a1.13 1.13 0 0 1-1.1 1.17h-.04zm49.33-26.3a1.13 1.13 0 0 1-1.13-1.14l.02-3.49c-.04-1.4-.51-3-1.31-4.38-.31-.54-.13-1.24.42-1.55a1.14 1.14 0 0 1 1.55.42c.99 1.72 1.56 3.66 1.61 5.45v3.56c-.02.61-.51 1.11-1.12 1.13h-.04zm.68 18.59c-.61 0-1.11-.49-1.13-1.1l-.27-8.7a1.13 1.13 0 0 1 1.1-1.17c.56.04 1.15.47 1.17 1.1l.27 8.7a1.13 1.13 0 0 1-1.1 1.17h-.04zm-42.17-6.23c-.38 0-.75-.19-.97-.54-.33-.53-.17-1.23.37-1.56l7.4-4.58c.53-.33 1.23-.16 1.56.37s.17 1.23-.37 1.56l-7.4 4.58c-.19.12-.39.17-.6.17zm28.83-17.75c-.38 0-.75-.19-.97-.54-.33-.53-.17-1.23.37-1.56l4.85-3.06c.53-.33 1.23-.16 1.56.37s.17 1.23-.37 1.56l-4.85 3.05c-.19.12-.39.17-.6.17zm-14.51 8.82c-.38 0-.75-.19-.97-.54-.33-.53-.16-1.23.37-1.56l7.4-4.58c.53-.33 1.23-.16 1.56.37s.17 1.23-.37 1.56l-7.4 4.58c-.19.12-.39.17-.6.17zm27.18-2.55c-.61-.02-1.1-.43-1.11-.94l-.05-4.97c0-.52.5-.93 1.13-.93.58.05 1.14.42 1.14.94l.05 4.97c0 .52-.5.93-1.13.93h-.04z"
          class="BZ"/>
    <path d="M211.97,643.54c-.05-1.5-1.3-2.69-2.81-2.64-1.5,.05-2.69,1.3-2.64,2.81,.05,1.5,1.3,2.69,2.81,2.64s2.69-1.3,2.64-2.81Z"
          fill="url(#Av)"/>
    <path d="M211.1 643.56a1.99 1.99 0 0 0-3.98.12 1.99 1.99 0 0 0 3.98-.12z" class="BZ"/>
    <path d="M254.63 698.45v14.05c0 .69.56.92 1.24.53l9.11-5.26c.69-.4 1.24-1.28 1.24-1.96v-14.05c0-.69.56-1.57 1.24-1.96l1.98-1.14c.97-.56 1.56-1.96 1.07-2.5l-9.02-9.87c-.48-.53-1.65.15-2.14 1.23l-9.02 20.28c-.5 1.12.1 1.83 1.07 1.27l1.98-1.14c.69-.4 1.24-.16 1.24.53z"
          fill="url(#Aw)"/>
    <path d="M265.78 716.12l-9.94 5.74c-.53.31-1.19-.08-1.19-.69v-3.67a.87.87 0 0 1 .45-.77l9.94-5.74c.53-.31 1.2.08 1.2.69v3.67a.87.87 0 0 1-.45.77z"
          fill="url(#Ax)" opacity=".53"/>
    <path d="M265.78 725.4l-9.94 5.74c-.53.31-1.19-.08-1.19-.69v-3.67c0-.32.17-.61.45-.77l9.94-5.74c.53-.31 1.2.08 1.2.69v3.67c0 .32-.17.61-.45.77z"
          fill="url(#Ay)" opacity=".2"/>
    <g class="Bb BZ">
        <path d="M128.56 534.63c-.57 0-1.07-.43-1.13-1.02-.07-.62.38-1.18 1.01-1.25 3.23-.34 6.27-1.04 9.04-2.06.58-.22 1.24.08 1.46.67s-.08 1.24-.67 1.46c-2.95 1.09-6.18 1.82-9.59 2.19h-.12zm-9.56 0h-.12c-3.41-.37-6.64-1.11-9.59-2.21-.59-.22-.89-.87-.67-1.46s.87-.89 1.46-.67c2.77 1.03 5.81 1.73 9.04 2.08a1.15 1.15 0 0 1 1.01 1.25c-.06.58-.56 1.01-1.13 1.01zm27.11-6.9c-.31 0-.61-.12-.84-.37-.42-.46-.39-1.18.07-1.6 2.47-2.26 3.78-4.85 3.8-7.48 0-.62.51-1.13 1.14-1.13h0c.63 0 1.13.52 1.13 1.14-.03 3.28-1.6 6.44-4.54 9.14a1.13 1.13 0 0 1-.77.3zm-44.63-.05a1.13 1.13 0 0 1-.77-.3c-2.93-2.71-4.48-5.88-4.48-9.16l1.14-.15 1.13.15c0 2.64 1.3 5.23 3.75 7.5.46.42.49 1.14.06 1.6a1.14 1.14 0 0 1-.83.37zm44.74-16.61c-.28 0-.55-.1-.77-.31-1.97-1.83-4.67-3.42-7.82-4.6-.59-.22-.89-.87-.67-1.46s.88-.88 1.46-.67c3.42 1.28 6.39 3.03 8.58 5.07a1.15 1.15 0 0 1 .06 1.61 1.13 1.13 0 0 1-.83.36zm-44.63-.15c-.31 0-.62-.13-.84-.37-.42-.46-.39-1.18.08-1.6 2.21-2.01 5.19-3.73 8.61-4.99.59-.22 1.24.09 1.46.68s-.09 1.24-.68 1.46c-3.15 1.16-5.87 2.72-7.87 4.54-.22.2-.49.3-.76.3zm27.13-6.85h-.13a43.72 43.72 0 0 0-4.74-.26c-1.59-.02-3.08.08-4.58.24-.64.06-1.18-.39-1.25-1.01s.39-1.18 1.01-1.25c1.58-.17 3.26-.16 4.82-.25 1.67 0 3.35.09 4.99.27a1.15 1.15 0 0 1 1.01 1.25c-.06.58-.56 1.01-1.13 1.01z"/>
    </g>
    <g class="Bb BZ">
        <path d="M125.8 547.77a1.15 1.15 0 0 1-1.15-1.14c0-.63.49-1.14 1.12-1.14h.04a65.45 65.45 0 0 0 9.01-.61 1.12 1.12 0 0 1 1.28.97c.09.62-.35 1.19-.97 1.28a68.39 68.39 0 0 1-9.32.63zm-9.24-.63c-.05 0-.1 0-.16-.01-3.16-.44-6.25-1.1-9.18-1.98a1.13 1.13 0 0 1 .65-2.17c2.82.84 5.8 1.48 8.84 1.91.62.09 1.05.66.97 1.28a1.14 1.14 0 0 1-1.12.98zm27.41-1.92c-.49 0-.94-.32-1.09-.81a1.13 1.13 0 0 1 .77-1.41c2.99-.89 5.81-2 8.38-3.31.56-.29 1.24-.06 1.53.5.28.56.06 1.24-.5 1.53-2.7 1.37-5.65 2.53-8.76 3.46a1.25 1.25 0 0 1-.32.05zm-45-3.42c-.17 0-.35-.04-.51-.12-2.98-1.52-5.64-3.28-7.9-5.23-.47-.41-.53-1.13-.12-1.6a1.13 1.13 0 0 1 1.6-.12c2.13 1.83 4.63 3.49 7.45 4.93.56.28.78.97.5 1.53a1.14 1.14 0 0 1-1.01.62zm61.26-5.03c-.32 0-.64-.13-.86-.4-.41-.48-.35-1.19.12-1.6 2.41-2.07 4.3-4.33 5.63-6.73.3-.55 1-.75 1.54-.44.55.3.75.99.44 1.54-1.46 2.63-3.52 5.11-6.14 7.35-.21.18-.48.27-.74.27zm-74.79-7.1a1.14 1.14 0 0 1-1-.59c-1.65-3-2.48-6.14-2.48-9.36 0-.63.51-1.21 1.14-1.21s1.14.44 1.14 1.06v.17c0 2.8.74 5.58 2.2 8.24.3.55.1 1.24-.45 1.54-.17.09-.36.14-.55.14zm83.05-8.78c-.63 0-1.14-.47-1.14-1.1v-.07c0-2.81-.73-5.57-2.17-8.2-.3-.55-.1-1.24.45-1.54s1.24-.1 1.54.45c1.62 2.98 2.44 6.1 2.44 9.29 0 .63-.51 1.17-1.14 1.17zm-82.98-8.98c-.19 0-.38-.05-.55-.14-.55-.31-.74-1-.44-1.55 1.47-2.63 3.54-5.1 6.16-7.33a1.13 1.13 0 1 1 1.47 1.73c-2.41 2.06-4.31 4.32-5.65 6.71-.21.37-.59.58-.99.58zm74.84-6.88c-.26 0-.53-.09-.74-.28-2.12-1.84-4.63-3.5-7.44-4.94a1.13 1.13 0 1 1 1.04-2.02c2.98 1.52 5.63 3.29 7.89 5.25a1.14 1.14 0 0 1 .11 1.6c-.23.26-.54.39-.86.39zm-61.23-5.19a1.14 1.14 0 0 1-1.01-.62c-.28-.56-.06-1.24.5-1.53 2.7-1.37 5.65-2.52 8.77-3.45.6-.18 1.23.17 1.41.77s-.17 1.23-.77 1.41c-2.99.88-5.81 1.99-8.39 3.3-.16.08-.34.12-.51.12zm45-3.31c-.11 0-.22-.02-.33-.05-2.82-.85-5.79-1.49-8.84-1.92-.62-.09-1.05-.66-.97-1.28.09-.62.66-1.06 1.28-.97 3.16.44 6.25 1.11 9.18 1.99a1.13 1.13 0 0 1 .76 1.41c-.15.49-.6.81-1.09.81zm-27.41-1.98c-.56 0-1.05-.41-1.12-.98-.08-.62.35-1.19.97-1.28a68.98 68.98 0 0 1 9.25-.62c.63 0 1.19.51 1.19 1.14 0 .64-.55 1.17-1.23 1.14a65.76 65.76 0 0 0-8.9.6c-.05 0-.1.01-.16.01z"/>
    </g>
    <g class="BZ Bb">
        <path d="M67.43 523.69c-.09 0-.19-.01-.28-.04-.59-.15-.95-.74-.83-1.33.31-1.47.78-3 1.39-4.54.22-.57.86-.86 1.43-.65.57.2.89.82.71 1.4l-1.33 4.35a1.13 1.13 0 0 1-1.08.8zm67.21 36.61a72.5 72.5 0 0 1-7.76.43h-.79c-.63 0-1.14.5-1.15 1.12 0 .63.49 1.14 1.12 1.15h.82c2.64 0 5.33-.14 8-.44a1.15 1.15 0 0 0 1.01-1.25c-.07-.62-.64-1.08-1.25-1.01zm-65.58-28.36l.06-.02c-.16-.32-.29-.66-.43-.99l-.68-.88-.44-.07-.25.07a1.13 1.13 0 0 0-.69.54c-.15.26-.19.58-.1.87.76 2.69 2.16 5.4 4.15 8.06.22.3.56.45.91.45.24 0 .48-.07.68-.23.5-.38.6-1.09.23-1.59-1.55-2.06-2.7-4.15-3.43-6.22zm31.75 24.44c-2.75-.92-5.43-1.98-7.98-3.15-.57-.26-1.24 0-1.51.56-.26.57-.01 1.24.56 1.51 2.62 1.2 5.39 2.29 8.21 3.24.12.04.24.06.36.06a1.15 1.15 0 0 0 1.08-.77c.2-.6-.12-1.24-.72-1.44zm-15.55-7.16c-2.54-1.56-4.87-3.23-6.92-4.97a1.135 1.135 0 1 0-1.47 1.73c2.14 1.82 4.57 3.56 7.2 5.18.19.11.39.17.59.17a1.13 1.13 0 0 0 .97-.54c.33-.54.16-1.23-.37-1.56zm32.27 10.94l-8.46-1.46a1.14 1.14 0 0 0-1.36.86 1.14 1.14 0 0 0 .86 1.36c2.88.65 5.8 1.16 8.69 1.5h.14c.57 0 1.06-.42 1.13-1 .07-.62-.37-1.19-.99-1.26zm65.51-47.61c-1.01-2.85-2.39-5.54-4.09-7.99-.36-.51-1.06-.64-1.58-.29a1.13 1.13 0 0 0-.28 1.58c1.59 2.29 2.87 4.79 3.82 7.45.17.47.6.76 1.07.76.13 0 .26-.02.38-.07.59-.21.9-.86.69-1.45zm-4.21 24.69c-1.48 2.18-3.34 4.32-5.53 6.37a1.14 1.14 0 0 0-.05 1.61 1.13 1.13 0 0 0 .83.36 1.12 1.12 0 0 0 .78-.31c2.31-2.17 4.28-4.44 5.85-6.75a1.14 1.14 0 0 0-.3-1.58 1.14 1.14 0 0 0-1.58.3zm6.15-15.95c-.06-.62-.58-1.07-1.25-1.02a1.13 1.13 0 0 0-1.01 1.25c.13 1.28.2 2.6.2 3.92 0 1.41-.19 2.86-.57 4.32-.16.61.21 1.23.81 1.38.1.03.19.04.29.04a1.14 1.14 0 0 0 1.1-.85c.43-1.64.64-3.28.64-4.89 0-1.4-.07-2.8-.21-4.15zm-18.36 27.6c-2.31 1.55-4.8 2.99-7.4 4.28-.56.28-.79.96-.51 1.52.2.4.6.63 1.02.63.17 0 .34-.04.5-.12 2.7-1.33 5.28-2.82 7.66-4.43a1.14 1.14 0 0 0 .31-1.58 1.14 1.14 0 0 0-1.58-.31zm-15.29 7.6c-2.68.95-5.45 1.75-8.23 2.39-.61.14-.99.75-.85 1.36.12.53.59.88 1.11.88.08 0 .17 0 .25-.03 2.87-.66 5.72-1.48 8.48-2.46.59-.21.9-.86.69-1.45s-.85-.9-1.45-.69zm20.79-56.62c-.24 0-.48-.07-.68-.23l-3.63-2.74c-.49-.37-.6-1.06-.24-1.56s1.05-.63 1.56-.29a39.59 39.59 0 0 1 3.73 2.82c.47.4.53 1.1.15 1.58-.22.28-.55.42-.89.42z"/>
    </g>
    <path d="M136.05 481.44l-.78-2.12-3.24-1.87c-2.15-1.47-5.24-1.39-8.68.6-6.5 3.75-11.77 12.88-11.77 20.38 0 2.33.51 4.23 1.4 5.63-.01 0 10.34 13.59 10.34 13.59l3.54 2.07.44-5.37-2.79.36 8.31-20.5c1.44-3.08 2.28-6.35 2.28-9.36 0-1.51-.22-2.84-.61-3.97l1.54.57zm-12.7 16.1c-3.22 1.86-5.83.35-5.83-3.36s2.61-8.24 5.83-10.09c3.22-1.86 5.83-.35 5.83 3.36s-2.61 8.24-5.83 10.09z"
          fill="url(#Az)"/>
    <path d="M126.89 480.12c-6.5 3.75-11.77 12.88-11.77 20.38 0 2.33.51 4.23 1.4 5.63-.01 0 10.34 13.59 10.34 13.59l9.5-23.44c1.44-3.08 2.28-6.35 2.28-9.36 0-7.5-5.27-10.54-11.77-6.79zm0 19.5c-3.22 1.86-5.83.35-5.83-3.36s2.61-8.24 5.83-10.09c3.22-1.86 5.83-.35 5.83 3.36s-2.61 8.24-5.83 10.09z"
          fill="url(#BA)"/>
    <path d="M266.94 756.03l-12.05 7.64c-2.2 1.39-4.08.09-4.2-2.91h0c-.12-3 1.56-6.56 3.75-7.95l12.05-7.64c2.2-1.39 4.08-.09 4.2 2.91h0c.12 3-1.56 6.56-3.75 7.95z"
          fill="url(#BB)"/>
    <path d="M372.7 607.1l-.66-19.39-64.26 42.24 65.56-15.34-.64-7.51h0z" fill="url(#BC)"/>
    <path d="M372.04 587.71l-13.43-7.16-2.12 2.07 12.47 7.11 3.08-2.02z" fill="url(#BD)"/>
    <path d="M367.35 597.09l1.93-1.04-.32-6.32-1.99 1.32.38 6.04z" fill="url(#BE)"/>
    <path d="M368.4 615.76l2.17-.5-.48-7.24-2.09.73.4 7.01z" fill="url(#BF)"/>
    <path d="M329.08 615.95l-4.34-2.48-1.59 1.54 3.94 2.25 1.99-1.31z" fill="url(#BG)"/>
    <path d="M354.9 584.16l-30.16 29.31-1.59 1.54-15.37 14.94 19.31-12.69 1.99-1.31 37.89-24.9-12.07-6.89z"
          fill="url(#BH)"/>
    <use xlink:href="#Be" fill="url(#BI)"/>
    <use xlink:href="#Be" fill="url(#BJ)"/>
    <path d="M331.09 617.09l-2.18 1.21 4.57 2.61 2.65-.94-5.04-2.88z" fill="url(#BK)"/>
    <use xlink:href="#Bf" fill="url(#BL)"/>
    <path d="M359.34 607.56l-.18-.71c-1.55-5.11-6.2-5.96-10.38-1.9-2.23 2.17-3.87 5.3-4.69 8.53 5.15-1.84 10.21-3.85 15.25-5.91z"
          fill="url(#BM)"/>
    <path d="M394.21 599.52l-15.91-8.47-3.58 1.97 14.48 8.27 5.01-1.77z" fill="url(#BN)"/>
    <path d="M372.54 594.23l-41.45 22.86-2.18 1.21-21.13 11.65 25.7-9.04 2.65-.94 50.42-17.75-14.01-7.99z"
          fill="url(#BO)"/>
    <use xlink:href="#Bf" fill="url(#BP)"/>
    <g fill="#00b1cc">
        <path d="M160.47 408.03l1.05-26.41c.05-1.29-.93-2.99-2.19-3.78l-16.75-10.57c-1.26-.8-2.33-.4-2.38.9l-1.05 26.41c-.05 1.29-1.12 1.69-2.38.9l-3.63-2.29c-1.78-1.12-2.95.17-2.1 2.3l15.45 38.82c.83 2.08 2.98 3.44 3.92 2.48l17.7-17.88c.97-.98-.04-3.66-1.82-4.78l-3.63-2.29c-1.26-.8-2.25-2.49-2.19-3.78z"/>
        <path d="M141.32 359.73l18.39 11.61a1.51 1.51 0 0 0 2.31-1.22l.28-6.95a1.7 1.7 0 0 0-.79-1.5l-18.38-11.61c-.99-.62-2.27.06-2.32 1.22l-.28 6.94a1.7 1.7 0 0 0 .79 1.5z"
              opacity=".53"/>
        <path d="M141.99 342.88l18.39 11.61a1.51 1.51 0 0 0 2.31-1.22l.28-6.95a1.71 1.71 0 0 0-.79-1.5l-18.38-11.61a1.52 1.52 0 0 0-2.32 1.22l-.28 6.94a1.71 1.71 0 0 0 .79 1.5z"
              opacity=".2"/>
    </g>
</svg>
