<svg xmlns="http://www.w3.org/2000/svg" viewBox="0 0 400 400">
    <style>
        <![CDATA[.N{mix-blend-mode:multiply}.A{isolation:isolate}.Q{stroke:#2f4f73}.R{stroke-width:2.13}.S{stroke-linecap:round}.T{stroke-miterlimit:10}]]></style>
    <g class="A">
        <path d="M220.79 33.65c31.35-10.37 84.44 4.54 96.5 48.57 11.95 43.62-2.68 55.63 1.76 93.21s92.67 78.26 49.02 130.09c-39.25 46.6-120.53-36.8-185.88-25.48 0 0-107.39 27.06-139.92-17.18-48.62-66.09 64.27-76.82 100.42-136.56 33.62-55.56 36.89-79.02 78.1-92.64z"
              fill="#eaecf8" opacity=".05"/>
        <ellipse cx="183.41" cy="361.96" rx="88.53" ry="7.54" fill="#e3e5ec" opacity=".1"/>
        <g fill="#404e9c">
            <path d="M258.78 247.58l-3.28-.93c5.06 4.75 7.6 11.95 6.06 19.24h0c-1.66 7.89-7.63 13.76-14.93 15.67l4.83.8c9.61 2.02 19.03-4.13 21.05-13.74h0c2.02-9.61-4.13-19.03-13.74-21.05z"/>
            <rect x="147" y="298.06" width="99.55" height="31.36" rx="14.78"
                  transform="matrix(.280164 -.959952 .959952 .280164 -159.54 414.71)"/>
        </g>
        <path d="M157.36,277.91l69.69,10.39c15.97,3.36,31.64-6.87,35-22.85h0c3.36-15.97-6.87-31.64-22.85-35l-69.84-21.91c-1.48-.31-13.48,69.05-12,69.36Z"
              fill="#4a5ea8"/>
        <path d="M236.05,271.71l-68.64-10.24c-1.4,9.13-7.63,14.98-7.63,14.98l69.18,10.32c15.01,3.16,29.76-5.69,34.26-20.03-7.78,4.97-17.43,7.02-27.17,4.97Z"
              fill="#485aa5"/>
        <path d="M241.33,231.08l-5.45-1.55c8.42,7.9,12.63,19.88,10.08,32h0c-2.76,13.11-12.69,22.87-24.82,26.06l8.03,1.33c15.97,3.36,31.64-6.87,35-22.84h0c3.36-15.97-6.87-31.64-22.85-35Z"
              fill="#fff"/>
        <path d="M124.83,146.84l58.06,65.95c3.73,18.15-.71,49.07-12.24,66.45l-81.84,39.04c-2.12,1.2-4.66-.66-4.16-3.04l35.15-167.28c.5-2.38,3.58-3.06,5.03-1.11Z"
              fill="#4a5ea8"/>
        <ellipse cx="104.09" cy="231.99" rx="89.29" ry="36.06"
                 transform="matrix(.205692 -.978617 .978617 .205692 -144.34 286.15)" fill="#6c7cbb"/>
        <ellipse cx="103.35" cy="234.83" rx="81.96" ry="31.34"
                 transform="matrix(.205692 -.978617 .978617 .205692 -147.71 287.68)" fill="#475ba6"/>
        <path d="M138.11 210.27c-2.52-2.64-6.27-4.78-11.65-6.36-11.4-3.35-24.58 10.45-29.1 29.47s1.56 35.33 12.73 39.41c6.01 2.19 10.6 2.17 14.22.57 4.21-10.47 7.78-22.53 10.31-35.54 1.85-9.54 3-18.82 3.48-27.54z"
              fill="#28427a"/>
        <ellipse cx="113.69" cy="235.04" rx="19.82" ry="9.26"
                 transform="matrix(.220357 -.975419 .975419 .220357 -140.62 294.14)" fill="#2e5092"/>
        <path d="M170.65,279.24s21.44-40.78,10.91-68.39" fill="none" stroke="#28427a" stroke-linejoin="round"
              stroke-width="2" class="S"/>
        <path d="M120.21,154.62c-13.83-2.91-30.55,18.57-41.28,50.65,12.23-11.52,31.29-17.65,59.36,1.42h0c.85-28.34-5.78-49.49-18.07-52.07Z"
              fill="#4153a0"/>
        <path d="M137.03,295.27c13.95-14.59,29.37-75.03,20.21-111.62l11.27,12.8c4.7,5.33,4.53,68.25-15.5,91.2l-15.97,7.62Z"
              fill="#fff"/>
        <path class="N"
              d="M240.8 272.42c-4.65 6.47-11.45 11.12-19.13 13.13l7.72 1.28.27.04c15.01 3.16 29.76-5.69 34.26-20.03-6.7 4.28-14.78 6.38-23.12 5.58zm-81.68 5.93c2.59-5.08 4.68-10.94 6.34-17.15l-12.43-1.83c-1.78 6.62-3.8 12.77-5.96 18.15l12.04.83z"
              opacity=".21" fill="#8c91c8"/>
        <g fill="none" class="Q R">
            <g class="S T">
                <path d="M49.01 141.97c4.74 3.46 7.75 9.12 7.55 15.42-.31 10.14-8.79 18.11-18.93 17.79-10.14-.31-18.11-8.79-17.79-18.93a18.35 18.35 0 0 1 2.9-9.36m16.03-8.43c2.15.07 4.21.5 6.1 1.24"/>
                <path d="M30.35 154.1l7.68 9.11 10.28-13.62"/>
            </g>
            <circle cx="41.72" cy="277.1" r="4.48" transform="matrix(.185667 -.982613 .982613 .185667 -238.31 266.63)"/>
            <circle cx="94.89" cy="114.23" r="4.48"/>
            <circle cx="138.47" cy="333.42" r="4.48"/>
            <g class="S T">
                <path d="M105.41 70.76h33.05v22.15h-34.18V76.3"/>
                <path d="M106.99 73.47l14.81 10.95 16.66-13.66"/>
            </g>
        </g>
        <g fill="#00b1cc" fill-rule="evenodd">
            <path d="M309.76,200l-41.1,3.06c-20.6,1.53-38.72-14.07-40.25-34.67h0c-1.53-20.6,14.07-38.72,34.67-40.25l41.1-3.06c20.6-1.53,38.72,14.07,40.25,34.67h0c1.53,20.6-14.07,38.72-34.67,40.25Z"/>
            <path d="M238.08 184.14l-1.19 26.78 23.07-10.62-21.88-16.16z"/>
        </g>
        <g fill="#fff">
            <circle cx="258.35" cy="167.63" r="7.08" transform="matrix(.72873 -.684802 .684802 .72873 -44.71 222.38)"/>
            <circle cx="286.57" cy="164.93" r="7.08" transform="matrix(.72873 -.684802 .684802 .72873 -35.21 240.98)"/>
            <circle cx="314.61" cy="162.3" r="7.08" transform="matrix(.969616 -.244631 .244631 .969616 -30.15 81.91)"/>
        </g>
        <path d="M169.37 197.31l-12.13-13.66m-20.21 111.62l15.98-7.62m82.87-58.11l11.57 3.55s10.93 3.39 15.18 15.78m-41.49 38.73l11.38 1.97s10.18 2.25 21.64-6.84"
              fill="none" class="Q R S T"/>
    </g>
</svg>
